<svg xmlns="http://www.w3.org/2000/svg" width="17" height="18" viewBox="0 0 17 18">
    <path fill="#343441" fill-rule="nonzero" d="M15.003 9.877c.032-.28.054-.573.054-.877 0-.304-.022-.596-.065-.877l1.847-1.486a.474.474 0 0 0 .109-.573l-1.749-3.117a.438.438 0 0 0-.535-.202l-2.175.9a6.36 6.36 0 0 0-1.475-.878L10.686.382A.44.44 0 0 0 10.249 0H6.75a.43.43 0 0 0-.426.382l-.328 2.385a6.53 6.53 0 0 0-1.475.878l-2.175-.9a.427.427 0 0 0-.535.202L.062 6.064a.444.444 0 0 0 .11.573L2.02 8.123A5.816 5.816 0 0 0 1.943 9c0 .293.022.596.065.877L.161 11.363a.474.474 0 0 0-.109.573l1.749 3.117c.109.202.338.27.535.202l2.175-.9c.459.36.94.652 1.475.878l.328 2.385c.044.224.219.382.437.382h3.498a.422.422 0 0 0 .426-.382l.328-2.385a6.53 6.53 0 0 0 1.475-.878l2.175.9c.197.079.426 0 .535-.202l1.75-3.117a.444.444 0 0 0-.11-.573l-1.825-1.486zM8.5 12.375c-1.803 0-3.279-1.519-3.279-3.375S6.697 5.625 8.5 5.625 11.779 7.144 11.779 9s-1.476 3.375-3.279 3.375z"/>
</svg>
