<?xml version="1.0" encoding="UTF-8"?>
<svg width="299px" height="32px" viewBox="0 0 299 32" version="1.1" xmlns="http://www.w3.org/2000/svg" xmlns:xlink="http://www.w3.org/1999/xlink">
    <!-- Generator: Sketch 52.6 (67491) - http://www.bohemiancoding.com/sketch -->
    <title>brand</title>
    <desc>Created with Sketch.</desc>
    <g id="V6" stroke="none" stroke-width="1" fill="none" fill-rule="evenodd">
        <g id="Group-21-Copy" transform="translate(-157.000000, -106.000000)">
            <g id="brand" transform="translate(157.000000, 106.000000)">
                <path d="M121.656,20.256 L122.056,21.392 C121.106529,21.9007607 120.045177,22.164724 118.968,22.16 C115.736,22.16 113.848,19.936 113.848,16.848 C113.848,13.792 115.992,11.36 119.192,11.36 C120.328,11.36 121.288,11.616 121.848,11.92 L121.848,13.248 C121.096,12.848 120.28,12.576 119.224,12.576 C116.824,12.576 115.352,14.48 115.352,16.784 C115.352,19.248 116.808,20.944 119.128,20.944 C120.12,20.944 120.92,20.656 121.656,20.256 Z M126.824,22.16 C124.664,22.16 123.24,20.432 123.24,18.208 C123.24,15.968 124.664,14.24 126.84,14.24 C128.984,14.24 130.424,15.968 130.424,18.208 C130.424,20.432 129,22.16 126.824,22.16 Z M126.824,20.992 C128.168,20.992 128.968,19.824 128.968,18.208 C128.968,16.576 128.168,15.408 126.84,15.408 C125.496,15.408 124.696,16.576 124.696,18.208 C124.696,19.824 125.496,20.992 126.824,20.992 Z M132.024,22 L132.024,14.432 L133.208,14.432 L133.368,15.36 C134.152,14.72 135.016,14.24 135.976,14.24 C136.856,14.24 137.576,14.656 137.944,15.504 C138.84,14.704 139.8,14.24 140.728,14.24 C141.976,14.24 143.048,15.008 143.048,16.928 L143.048,22 L141.64,22 L141.64,17.344 C141.64,16.304 141.416,15.488 140.376,15.488 C139.624,15.488 138.888,15.936 138.232,16.496 C138.232,16.624 138.248,16.768 138.248,16.896 L138.248,22 L136.84,22 L136.84,17.36 C136.84,16.304 136.616,15.488 135.576,15.488 C134.824,15.488 134.088,15.936 133.432,16.496 L133.432,22 L132.024,22 Z M145.016,22 L145.016,14.432 L146.2,14.432 L146.36,15.36 C147.144,14.72 148.008,14.24 148.968,14.24 C149.848,14.24 150.568,14.656 150.936,15.504 C151.832,14.704 152.792,14.24 153.72,14.24 C154.968,14.24 156.04,15.008 156.04,16.928 L156.04,22 L154.632,22 L154.632,17.344 C154.632,16.304 154.408,15.488 153.368,15.488 C152.616,15.488 151.88,15.936 151.224,16.496 C151.224,16.624 151.24,16.768 151.24,16.896 L151.24,22 L149.832,22 L149.832,17.36 C149.832,16.304 149.608,15.488 148.568,15.488 C147.816,15.488 147.08,15.936 146.424,16.496 L146.424,22 L145.016,22 Z M163.96,18.528 L159.08,18.528 C159.096,19.952 159.976,21.008 161.464,21.008 C162.2,21.008 162.824,20.784 163.352,20.496 L163.784,21.472 C163.08,21.92 162.168,22.16 161.304,22.16 C158.792,22.16 157.64,20.32 157.64,18.16 C157.64,15.856 158.904,14.24 160.84,14.24 C162.824,14.24 163.96,15.76 163.96,18.176 L163.96,18.528 Z M159.08,17.472 L162.504,17.472 C162.488,16.416 161.976,15.36 160.84,15.36 C159.752,15.36 159.096,16.32 159.08,17.472 Z M165.576,22 L165.576,14.432 L166.76,14.432 L166.92,15.36 C167.72,14.512 168.344,14.24 169.048,14.24 C169.368,14.24 169.72,14.32 169.944,14.464 L169.448,15.712 C169.222724,15.5871054 168.969578,15.5210674 168.712,15.52 C168.184,15.52 167.688,15.808 166.984,16.496 L166.984,22 L165.576,22 Z M174.2,22.16 C171.832,22.16 170.536,20.432 170.536,18.288 C170.536,16.032 172.072,14.24 174.376,14.24 C175.192,14.24 175.864,14.464 176.312,14.72 L176.312,15.952 C175.773416,15.5895085 175.137157,15.399747 174.488,15.408 C172.936,15.408 171.992,16.608 171.992,18.208 C171.992,19.984 172.936,20.992 174.392,20.992 C175.16,20.992 175.704,20.736 176.2,20.464 L176.616,21.456 C176.056,21.84 175.16,22.16 174.2,22.16 Z M177.96,22 L177.96,14.432 L179.368,14.432 L179.368,22 L177.96,22 Z M178.664,12.88 C178.136,12.88 177.768,12.48 177.768,11.968 C177.768,11.472 178.136,11.072 178.664,11.072 C179.208,11.072 179.592,11.456 179.592,11.968 C179.592,12.48 179.192,12.88 178.664,12.88 Z M186.008,22 L185.768,21.184 C185.192,21.728 184.456,22.16 183.512,22.16 C182.12,22.16 181.08,21.248 181.08,19.792 C181.08,18.784 181.592,18.112 182.36,17.744 C182.888,17.488 183.496,17.392 184.264,17.36 L185.672,17.312 L185.672,16.912 C185.672,15.84 185.016,15.376 184.104,15.376 C183.24,15.376 182.584,15.648 182.04,15.968 L181.544,14.992 C182.371082,14.4982131 183.316731,14.2382977 184.28,14.24 C185.992,14.24 187.08,15.056 187.08,16.88 L187.08,19.632 C187.08,20.928 187.128,21.616 187.224,22 L186.008,22 Z M185.672,18.32 L184.44,18.368 C183.832,18.384 183.432,18.48 183.112,18.64 C182.712,18.864 182.52,19.248 182.52,19.712 C182.52,20.496 183.032,21.008 183.832,21.008 C184.712,21.008 185.336,20.48 185.672,20.144 L185.672,18.32 Z M189.112,20.512 L189.112,10.672 L190.52,10.672 L190.52,20.112 C190.52,20.688 190.696,20.864 191.08,20.864 C191.208,20.864 191.432,20.816 191.56,20.768 L191.848,21.872 C191.496,22.016 191.048,22.096 190.68,22.096 C189.624,22.096 189.112,21.52 189.112,20.512 Z M201.032,22 L201.032,11.456 L202.456,11.456 L202.456,20.784 L206.312,20.784 L206.312,22 L201.032,22 Z M210.856,22.16 C208.696,22.16 207.272,20.432 207.272,18.208 C207.272,15.968 208.696,14.24 210.872,14.24 C213.016,14.24 214.456,15.968 214.456,18.208 C214.456,20.432 213.032,22.16 210.856,22.16 Z M210.856,20.992 C212.2,20.992 213,19.824 213,18.208 C213,16.576 212.2,15.408 210.872,15.408 C209.528,15.408 208.728,16.576 208.728,18.208 C208.728,19.824 209.528,20.992 210.856,20.992 Z M219.336,22.16 C216.968,22.16 215.672,20.432 215.672,18.288 C215.672,16.032 217.208,14.24 219.512,14.24 C220.328,14.24 221,14.464 221.448,14.72 L221.448,15.952 C220.909416,15.5895085 220.273157,15.399747 219.624,15.408 C218.072,15.408 217.128,16.608 217.128,18.208 C217.128,19.984 218.072,20.992 219.528,20.992 C220.296,20.992 220.84,20.736 221.336,20.464 L221.752,21.456 C221.192,21.84 220.296,22.16 219.336,22.16 Z M227.48,22 L227.24,21.184 C226.664,21.728 225.928,22.16 224.984,22.16 C223.592,22.16 222.552,21.248 222.552,19.792 C222.552,18.784 223.064,18.112 223.832,17.744 C224.36,17.488 224.968,17.392 225.736,17.36 L227.144,17.312 L227.144,16.912 C227.144,15.84 226.488,15.376 225.576,15.376 C224.712,15.376 224.056,15.648 223.512,15.968 L223.016,14.992 C223.843082,14.4982131 224.788731,14.2382977 225.752,14.24 C227.464,14.24 228.552,15.056 228.552,16.88 L228.552,19.632 C228.552,20.928 228.6,21.616 228.696,22 L227.48,22 Z M227.144,18.32 L225.912,18.368 C225.304,18.384 224.904,18.48 224.584,18.64 C224.184,18.864 223.992,19.248 223.992,19.712 C223.992,20.496 224.504,21.008 225.304,21.008 C226.184,21.008 226.808,20.48 227.144,20.144 L227.144,18.32 Z M232.984,22.16 C231.816,22.16 231.128,21.488 231.128,20.304 L231.128,15.568 L229.832,15.568 L229.832,14.432 L231.128,14.432 L231.128,12.704 L232.536,12.256 L232.536,14.432 L234.808,14.432 L234.424,15.568 L232.536,15.568 L232.536,20.032 C232.536,20.704 232.808,20.992 233.304,20.992 C233.784,20.992 234.216,20.784 234.52,20.592 L234.984,21.568 C234.488,21.92 233.736,22.16 232.984,22.16 Z M236.392,22 L236.392,14.432 L237.8,14.432 L237.8,22 L236.392,22 Z M237.096,12.88 C236.568,12.88 236.2,12.48 236.2,11.968 C236.2,11.472 236.568,11.072 237.096,11.072 C237.64,11.072 238.024,11.456 238.024,11.968 C238.024,12.48 237.624,12.88 237.096,12.88 Z M243.128,22.16 C240.968,22.16 239.544,20.432 239.544,18.208 C239.544,15.968 240.968,14.24 243.144,14.24 C245.288,14.24 246.728,15.968 246.728,18.208 C246.728,20.432 245.304,22.16 243.128,22.16 Z M243.128,20.992 C244.472,20.992 245.272,19.824 245.272,18.208 C245.272,16.576 244.472,15.408 243.144,15.408 C241.8,15.408 241,16.576 241,18.208 C241,19.824 241.8,20.992 243.128,20.992 Z M248.328,22 L248.328,14.432 L249.512,14.432 L249.688,15.36 C250.504,14.688 251.352,14.24 252.312,14.24 C253.512,14.24 254.616,14.944 254.616,16.928 L254.616,22 L253.208,22 L253.208,17.392 C253.208,16.32 252.952,15.488 251.912,15.488 C251.144,15.488 250.408,15.936 249.736,16.512 L249.736,22 L248.328,22 Z M263.408,21.328 L264,20.224 C264.544,20.592 265.344,20.944 266.304,20.944 C267.36,20.944 268.32,20.528 268.32,19.392 C268.32,17.008 263.712,17.296 263.712,14.128 C263.712,12.608 264.88,11.36 266.912,11.36 C267.904,11.36 268.784,11.616 269.296,11.872 L269.296,13.168 C268.577053,12.7836579 267.77522,12.5804535 266.96,12.576 C266.08,12.576 265.2,12.944 265.2,13.984 C265.2,16.224 269.824,15.984 269.824,19.28 C269.824,21.072 268.368,22.16 266.32,22.16 C265.104,22.16 264.096,21.792 263.408,21.328 Z M274.944,22.16 C272.576,22.16 271.28,20.432 271.28,18.288 C271.28,16.032 272.816,14.24 275.12,14.24 C275.936,14.24 276.608,14.464 277.056,14.72 L277.056,15.952 C276.517416,15.5895085 275.881157,15.399747 275.232,15.408 C273.68,15.408 272.736,16.608 272.736,18.208 C272.736,19.984 273.68,20.992 275.136,20.992 C275.904,20.992 276.448,20.736 276.944,20.464 L277.36,21.456 C276.8,21.84 275.904,22.16 274.944,22.16 Z M281.776,22.16 C279.616,22.16 278.192,20.432 278.192,18.208 C278.192,15.968 279.616,14.24 281.792,14.24 C283.936,14.24 285.376,15.968 285.376,18.208 C285.376,20.432 283.952,22.16 281.776,22.16 Z M281.776,20.992 C283.12,20.992 283.92,19.824 283.92,18.208 C283.92,16.576 283.12,15.408 281.792,15.408 C280.448,15.408 279.648,16.576 279.648,18.208 C279.648,19.824 280.448,20.992 281.776,20.992 Z M286.976,22 L286.976,14.432 L288.16,14.432 L288.32,15.36 C289.12,14.512 289.744,14.24 290.448,14.24 C290.768,14.24 291.12,14.32 291.344,14.464 L290.848,15.712 C290.622724,15.5871054 290.369578,15.5210674 290.112,15.52 C289.584,15.52 289.088,15.808 288.384,16.496 L288.384,22 L286.976,22 Z M298.272,18.528 L293.392,18.528 C293.408,19.952 294.288,21.008 295.776,21.008 C296.512,21.008 297.136,20.784 297.664,20.496 L298.096,21.472 C297.392,21.92 296.48,22.16 295.616,22.16 C293.104,22.16 291.952,20.32 291.952,18.16 C291.952,15.856 293.216,14.24 295.152,14.24 C297.136,14.24 298.272,15.76 298.272,18.176 L298.272,18.528 Z M293.392,17.472 L296.816,17.472 C296.8,16.416 296.288,15.36 295.152,15.36 C294.064,15.36 293.408,16.32 293.392,17.472 Z" id="Shape" fill="#FFFFFF" fill-rule="nonzero"></path>
                <g id="Group" fill="#FFFFFF" fill-rule="nonzero">
                    <path d="M40.75,15.548 C37.931,15.784 36.554,13.221 36.34,10.753 C36.045,7.375 37.862,6.04 39.615,5.892 C42.295,5.667 43.765,8.147 43.985,10.707 C44.271,13.99 42.599,15.388 40.75,15.547 L40.75,15.548 Z M40.209,5.168 C36.669,5.168 34.179,7.62 34.179,10.815 C34.179,13.845 36.424,16.271 40.209,16.271 C43.649,16.271 46.143,13.916 46.143,10.673 C46.143,7.734 44.141,5.168 40.209,5.168 Z M69.575,5.436 C68.883,5.482 68.371,5.502 67.83,5.502 C67.274,5.502 66.713,5.482 65.984,5.436 C65.735,5.527 65.712,5.914 65.929,6.031 L66.444,6.105 C67.034,6.179 66.982,6.39 66.614,7.065 L65.64,8.825 C65.229,9.588 64.858,10.163 64.465,10.815 C64.0806672,10.1626695 63.715839,9.49904222 63.371,8.825 L62.465,7.116 C62.069,6.364 62.15,6.228 62.682,6.106 L63.027,6.031 C63.27,5.914 63.2,5.527 63.001,5.436 C61.5613513,5.52425347 60.1176487,5.52425347 58.678,5.436 C58.487,5.502 58.438,5.889 58.602,6.031 L59.239,6.151 C59.873,6.273 60.122,6.49 60.631,7.449 L62.413,10.696 C63.027,11.8 63.096,11.991 63.096,12.74 L63.096,13.649 C63.096,15.069 63.001,15.215 61.95,15.331 L61.343,15.406 C61.166,15.526 61.193,15.936 61.389,16.006 C62.489,15.961 63.249,15.936 64.031,15.936 C64.783,15.936 65.591,15.961 66.661,16.006 C66.861,15.936 66.887,15.526 66.713,15.406 L66.103,15.331 C65.055,15.215 64.951,15.069 64.951,13.649 L64.951,12.35 C64.951,11.655 65.003,11.416 65.885,10.05 L67.395,7.64 C68.154,6.444 68.275,6.296 69.036,6.15 L69.621,6.031 C69.818,5.914 69.766,5.501 69.575,5.436 Z M52.546,15.357 C50.68,15.357 50.443,14.585 50.443,13.057 L50.443,7.33 C50.443,6.797 50.443,6.493 50.582,6.393 C50.782,6.228 51.247,6.131 52.055,6.131 C54.809,6.131 56.91,7.669 56.91,10.624 C56.91,13.552 55.472,15.357 52.546,15.357 Z M55.715,5.963 C54.569,5.576 53.368,5.433 52.002,5.433 C50.029,5.433 48.658,5.482 47.289,5.576 C47.072,5.646 47.043,6.106 47.263,6.176 L47.995,6.273 C48.559,6.344 48.582,6.752 48.582,8.315 L48.582,13.415 C48.582,15.069 48.484,15.163 47.434,15.331 L46.968,15.403 C46.8,15.525 46.826,15.938 47.017,16.003 C47.8487263,15.9622301 48.681279,15.9405577 49.514,15.938 C49.881,15.938 50.344,15.961 50.824,15.984 C51.343,16.034 51.91,16.058 52.445,16.058 C53.663,16.058 55.029,15.87 56.131,15.308 C58.087,14.326 59.086,12.569 59.086,10.673 C59.086,8.46 57.937,6.706 55.715,5.963 Z M78.015,10.163 L76.505,9.394 C75.527,8.89 74.879,8.361 74.879,7.504 C74.879,6.686 75.408,5.864 76.849,5.864 C78.289,5.864 78.924,7.09 79.126,7.931 C79.242,8.096 79.679,8.073 79.763,7.885 C79.777,6.851 79.606,5.935 79.413,5.527 C78.585,5.387 77.998,5.168 77.138,5.168 C74.678,5.168 73.302,6.39 73.302,8.147 C73.302,9.494 74.308,10.431 75.48,11.029 L76.577,11.584 C77.975,12.282 78.29,13.076 78.29,13.845 C78.29,14.947 77.486,15.576 76.238,15.576 C74.604,15.576 73.53,13.871 73.333,13.002 C73.16,12.782 72.795,12.808 72.697,13.053 C72.697,14.326 72.989,15.192 73.212,15.525 C73.553,15.765 74.534,16.271 76.019,16.271 C78.438,16.271 80,15.092 80,13.221 C80,11.61 78.898,10.599 78.015,10.163 Z M73.857,2.366 C73.857,1.119 72.983,0.06 71.977,0.06 C71.03,0.06 70.804,0.686 70.804,1.05 C70.804,1.5 71.129,1.697 71.464,1.723 C71.93,1.748 72.682,2.153 72.682,3.07 C72.682,4.052 71.736,4.727 70.83,5.131 C70.709,5.299 70.804,5.544 71.001,5.638 C72.538,5.185 73.857,4.026 73.857,2.366 Z M27.633,15.548 C24.815,15.784 23.438,13.221 23.223,10.753 C22.929,7.375 24.746,6.04 26.499,5.892 C29.179,5.667 30.649,8.147 30.871,10.707 C31.155,13.99 29.479,15.388 27.633,15.547 L27.633,15.548 Z M27.093,5.168 C23.551,5.168 21.063,7.62 21.063,10.815 C21.063,13.845 23.308,16.271 27.093,16.271 C30.533,16.271 33.027,13.916 33.027,10.673 C33.027,7.734 31.025,5.168 27.092,5.168 L27.093,5.168 Z M19.945,15.331 C18.802,15.215 18.823,14.588 18.75,13.392 C18.554,9.924 18.528,5.482 18.481,2.933 C18.455,1.253 18.652,0.82 20.188,0.646 L20.706,0.601 C20.828,0.501 20.828,0.094 20.683,-1.11022302e-16 C19.919,0.048 19.118,0.068 18.507,0.068 C18.018,0.068 17.507,0.068 16.673,-1.11022302e-16 C16.623,1.105 15.943,2.429 14.818,4.613 L12.521,9.201 C11.913,10.431 11.3,11.684 10.643,12.809 L10.593,12.809 C10.003,11.749 9.468,10.644 8.907,9.519 L6.123,3.965 C5.368,2.429 4.754,0.937 4.853,-7.39557099e-32 C4.046,0.068 3.389,0.068 2.824,0.068 C2.217,0.068 1.63,0.048 0.897,-7.39557099e-32 C0.701,0.094 0.675,0.456 0.8,0.6 L1.188,0.646 C2.678,0.888 2.88,1.199 2.825,2.714 C2.776,4.035 2.678,6.077 2.556,8.073 C2.45184535,9.83870251 2.31515547,11.6023354 2.146,13.363 C1.998,15.043 1.654,15.215 0.629,15.331 L0.091,15.403 C-0.059,15.525 -0.007,15.89 0.143,16.003 C0.973,15.961 1.85,15.938 2.629,15.938 C3.558,15.938 4.512,15.961 5.343,16.004 C5.513,15.938 5.54,15.551 5.369,15.403 L4.44,15.331 C3.485,15.263 3.343,14.879 3.343,13.099 C3.343,11.057 3.439,8.913 3.511,7.449 C3.586,6.054 3.661,4.659 3.754,3.169 L3.804,3.169 C4.342,4.277 4.854,5.527 5.369,6.632 L7.562,11.271 C8.126,12.45 9.295,14.808 9.718,16.078 C9.764,16.152 9.888,16.174 9.935,16.174 C10.033,16.174 10.129,16.152 10.175,16.078 C10.618,14.973 11.72,12.718 12.814,10.598 L14.99,6.39 C15.479,5.459 16.402,3.534 16.575,3.269 L16.625,3.269 L16.7,13.289 C16.7,14.83 16.7,15.215 15.502,15.331 L14.799,15.403 C14.649,15.551 14.674,15.89 14.848,16.003 C15.830132,15.961587 16.8129971,15.939916 17.796,15.938 C18.676,15.938 19.68,15.961 20.684,16.004 C20.852,15.91 20.875,15.551 20.734,15.403 L19.946,15.331 L19.945,15.331 Z" id="Shape"></path>
                    <path d="M0.168,30 L3.18,22.068 L3.972,22.068 L7.044,30 L5.892,30 L5.124,27.924 L2.052,27.924 L1.296,30 L0.168,30 Z M2.376,27.048 L4.788,27.048 L4.044,24.984 C3.816,24.312 3.696,23.952 3.6,23.664 L3.576,23.664 C3.492,23.952 3.36,24.324 3.12,24.996 L2.376,27.048 Z M15.69,30 L14.766,30 L11.082,25.152 C10.638,24.576 10.314,24.108 10.038,23.724 L10.014,23.724 C10.038,24.096 10.05,24.468 10.05,25.044 L10.05,30 L8.982,30 L8.982,22.092 L10.014,22.092 L13.554,26.76 C14.022,27.36 14.358,27.852 14.622,28.236 L14.646,28.236 C14.634,27.816 14.622,27.42 14.622,26.868 L14.622,22.092 L15.69,22.092 L15.69,30 Z M17.616,30 L20.628,22.068 L21.42,22.068 L24.492,30 L23.34,30 L22.572,27.924 L19.5,27.924 L18.744,30 L17.616,30 Z M19.824,27.048 L22.236,27.048 L21.492,24.984 C21.264,24.312 21.144,23.952 21.048,23.664 L21.024,23.664 C20.94,23.952 20.808,24.324 20.568,24.996 L19.824,27.048 Z M26.43,30 L26.43,22.092 L27.498,22.092 L27.498,29.088 L30.39,29.088 L30.39,30 L26.43,30 Z M34.2,30 L34.2,26.844 L31.56,22.092 L32.736,22.092 L34.728,25.848 L34.752,25.848 L36.708,22.092 L37.872,22.092 L35.256,26.868 L35.256,30 L34.2,30 Z M41.274,30 L41.274,23.004 L38.994,23.004 L38.994,22.092 L44.85,22.092 L44.526,23.004 L42.342,23.004 L42.342,30 L41.274,30 Z M46.644,30 L46.644,22.092 L47.712,22.092 L47.712,30 L46.644,30 Z M55.962,28.692 L56.262,29.544 C55.5498893,29.9255507 54.7538801,30.1235219 53.946,30.12 C51.522,30.12 50.106,28.452 50.106,26.136 C50.106,23.844 51.714,22.02 54.114,22.02 C54.966,22.02 55.686,22.212 56.106,22.44 L56.106,23.436 C55.5040351,23.1021141 54.8263529,22.9285613 54.138,22.932 C52.338,22.932 51.234,24.36 51.234,26.088 C51.234,27.936 52.326,29.208 54.066,29.208 C54.81,29.208 55.41,28.992 55.962,28.692 Z M58.056,29.496 L58.5,28.668 C58.908,28.944 59.508,29.208 60.228,29.208 C61.02,29.208 61.74,28.896 61.74,28.044 C61.74,26.256 58.284,26.472 58.284,24.096 C58.284,22.956 59.16,22.02 60.684,22.02 C61.428,22.02 62.088,22.212 62.472,22.404 L62.472,23.376 C61.9327864,23.0877529 61.3314135,22.9353502 60.72,22.932 C60.06,22.932 59.4,23.208 59.4,23.988 C59.4,25.668 62.868,25.488 62.868,27.96 C62.868,29.304 61.776,30.12 60.24,30.12 C59.328,30.12 58.572,29.844 58.056,29.496 Z" id="Shape"></path>
                </g>
                <path d="M96,3 L96,31" id="Path" stroke="#FFFFFF" opacity="0.7" stroke-linecap="square"></path>
            </g>
        </g>
    </g>
</svg>