<svg xmlns="http://www.w3.org/2000/svg" width="92" height="98" viewBox="0 0 92 98">
    <g fill="#0090FF" fill-rule="evenodd">
        <path d="M74.938 43.744c-1.363 3.485-4.695 5.91-8.938 5.91-4.242 0-8.183-2.425-10.304-5.91-1.817 3.485-5.305 5.91-9.547 5.91-4.243 0-7.88-2.425-9.547-5.91-2.121 3.485-6.063 5.91-10.305 5.91-4.243 0-7.575-2.425-8.938-5.91-3.332 4.547-8.789 6.364-12.426 5.758l.004 46.059c0 .758.606 1.516 1.516 1.516h27.426V71.472c0-.758.605-1.516 1.515-1.516h21.97c.757 0 1.515.605 1.515 1.516v25.605h27.426c.758 0 1.516-.606 1.516-1.516l-.004-46.059c-4.09.605-9.543-1.215-12.88-5.758h.001z"/>
        <path d="M56.758 38.592c.605 4.395 4.695 8.031 9.09 8.031 4.547 0 7.426-3.789 6.515-8.183L67.97 16.624c.152.91.152 1.816.152 2.726 0 8.18-4.547 15.453-11.363 19.242zM91.152 38.592L84.031 17.53c-.152-.605-.758-1.062-1.363-1.062H71.152l4.242 21.21c.91 4.848 5.758 8.79 10.605 8.79 4.394.156 6.515-3.48 5.152-7.875h.001zM16.605 37.834l4.242-21.21H9.331c-.605 0-1.21.452-1.363 1.062L.847 38.592c-1.516 4.242.605 8.03 5.305 8.03 4.695 0 9.543-3.94 10.453-8.788zM38.273 39.955c.605 3.637 3.637 6.668 7.727 6.668s7.12-2.879 7.726-6.668c-2.426.91-5 1.364-7.726 1.364-2.727.152-5.305-.454-7.727-1.364zM19.637 38.14v.304c-.91 4.394 1.969 8.183 6.516 8.183 4.394 0 8.484-3.636 9.09-8.03-6.817-3.79-11.364-11.063-11.364-19.243 0-.91 0-1.816.153-2.726-3.637 17.57-4.395 20.902-4.395 21.512z"/>
        <path d="M46 38.44c10.605 0 19.242-8.636 19.242-19.242C65.242 8.745 56.605.108 46 .108S26.758 8.745 26.758 19.35 35.395 38.44 46 38.44zm0-17.727c-3.332 0-5.91-2.726-5.91-5.91 0-2.727 1.969-5.152 4.547-5.758V7.987c0-.758.605-1.516 1.515-1.516.758 0 1.516.605 1.516 1.516v1.062c2.574.606 4.547 3.031 4.547 5.758 0 .758-.606 1.516-1.516 1.516-.758 0-1.515-.606-1.515-1.516a3.04 3.04 0 0 0-3.032-3.031 3.04 3.04 0 0 0-3.03 3.03 3.04 3.04 0 0 0 3.03 3.032c3.332 0 6.063 2.727 6.063 6.063 0 2.726-1.969 5.152-4.547 5.757v1.063c0 .758-.605 1.516-1.516 1.516-.757 0-1.515-.606-1.515-1.516v-1.063c-2.574-.605-4.547-3.03-4.547-5.757 0-.758.605-1.516 1.515-1.516.91 0 1.516.605 1.516 1.516a3.04 3.04 0 0 0 3.031 3.03 3.04 3.04 0 0 0 3.032-3.03c-.153-1.825-1.516-3.188-3.184-3.188z"/>
    </g>
</svg>
