<svg id="Group_1572" data-name="Group 1572" xmlns="http://www.w3.org/2000/svg" viewBox="0 0 220.621 61.214">
  <defs>
    <style>
      .cls-1 {
        fill: #121212;
      }
    </style>
  </defs>
  <path id="Path_927" data-name="Path 927" class="cls-1" d="M16.695,1.9C8.258,1.9,1.616,9.081,1.616,17.877c0,11.848,15.079,29.62,15.079,29.62S31.774,29.9,31.774,17.877C31.774,9.081,24.952,1.9,16.695,1.9Zm0,21.721a5.488,5.488,0,0,1-5.385-5.744,5.488,5.488,0,0,1,5.385-5.744,5.488,5.488,0,0,1,5.385,5.744A5.6,5.6,0,0,1,16.695,23.621ZM0,59.524H33.389V57.19H0Z" transform="translate(0 1.511)"/>
  <path id="Path_928" data-name="Path 928" class="cls-1" d="M38.566,24.414a6.479,6.479,0,0,1-1.975,5.026,6.058,6.058,0,0,1-4.129,1.436A5.994,5.994,0,0,1,27.8,28.9C26,26.927,26,23.516,26,18.849s0-8.258,1.8-10.232a5.994,5.994,0,0,1,4.667-1.975,5.408,5.408,0,0,1,4.129,1.616,8.073,8.073,0,0,1,1.975,5.026H34.8a4.969,4.969,0,0,0-.539-2.334,2.244,2.244,0,0,0-3.59,0c-.718,1.077-.9,3.59-.9,7.9s.18,6.821.9,7.9a2.244,2.244,0,0,0,3.59,0,4.491,4.491,0,0,0,.539-2.334Zm15.977-5.565c0,4.667,0,8.078-1.8,10.053a6.5,6.5,0,0,1-9.335,0c-1.8-1.975-1.8-5.385-1.8-10.053s0-8.078,1.8-10.053a6.5,6.5,0,0,1,9.335,0c1.8,1.975,1.8,5.385,1.8,10.053Zm-3.77,0c0-4.308-.18-6.821-.718-7.9a2.244,2.244,0,0,0-3.59,0c-.718,1.077-.9,3.59-.9,7.9s.18,6.821.9,7.9a2.244,2.244,0,0,0,3.59,0c.539-1.077.718-3.59.718-7.9ZM74.468,30.7H70.7V15.977L67.467,25.67H65.493l-3.231-9.514V30.7h-3.77V7H61.9L66.57,19.387,71.058,7h3.411V30.7Zm20.823,0h-3.77V15.977L88.291,25.67H86.137l-3.052-9.514V30.7h-3.77V7h3.411l4.667,12.386L91.881,7h3.411V30.7Zm14.72,0H99.959V7h10.053v3.411h-6.283v6.821h5.385v3.411h-5.385v6.821h6.283Zm16.695,0h-3.77L119.885,21h-2.154V30.7h-3.77V7h5.924c4.308,0,6.1,2.154,6.1,7,0,2.872-.539,5.026-2.693,6.283ZM122.219,14c0-1.975-.359-3.59-2.334-3.59h-2.334v7.181h2.334c2.154,0,2.334-1.616,2.334-3.59Zm20.105,10.412a6.479,6.479,0,0,1-1.975,5.026,6.058,6.058,0,0,1-4.129,1.436,5.994,5.994,0,0,1-4.667-1.975c-1.8-1.975-1.8-5.385-1.8-10.053s0-8.258,1.8-10.232a5.994,5.994,0,0,1,4.667-1.975,5.408,5.408,0,0,1,4.129,1.616c1.257,1.077,1.8,2.872,1.975,5.026h-3.77a4.969,4.969,0,0,0-.539-2.334,2.244,2.244,0,0,0-3.59,0c-.718,1.077-.9,3.59-.9,7.9s.179,6.821.9,7.9a2.244,2.244,0,0,0,3.59,0,4.491,4.491,0,0,0,.539-2.334Zm7.719,6.283h-3.77V7h3.77Zm18.131,0h-3.949l-.9-4.667h-5.565l-.9,4.667h-3.949L158.839,7h3.59Zm-5.565-8.078-1.975-9.873-1.975,9.873ZM181.1,30.7H171.046V7h3.77V27.286H181.1ZM34.617,61.034H26.539V41.647H29.59V58.342h5.026Zm12.027-9.694c0,3.77,0,6.642-1.436,8.258a5.206,5.206,0,0,1-7.54,0c-1.436-1.616-1.436-4.488-1.436-8.258s0-6.642,1.436-8.258a5.206,5.206,0,0,1,7.54,0C46.644,44.7,46.644,47.571,46.644,51.341Zm-3.052,0c0-3.59,0-5.565-.718-6.462a1.8,1.8,0,0,0-2.872,0c-.539.9-.718,2.872-.718,6.462s.18,5.565.718,6.462a1.865,1.865,0,0,0,1.436.718,1.6,1.6,0,0,0,1.436-.718C43.592,56.906,43.592,54.931,43.592,51.341ZM59.03,55.828a5.151,5.151,0,0,1-1.616,4.129A5.269,5.269,0,0,1,54,61.214a4.946,4.946,0,0,1-3.77-1.616C48.8,57.983,48.8,55.11,48.8,51.341s0-6.642,1.436-8.258A4.946,4.946,0,0,1,54,41.467a4.469,4.469,0,0,1,3.411,1.257,6.708,6.708,0,0,1,1.616,4.129H55.979a2.68,2.68,0,0,0-.539-1.8A1.865,1.865,0,0,0,54,44.34c-.718,0-1.077.18-1.257.539-.539.9-.718,2.872-.718,6.462s.18,5.565.718,6.462a1.865,1.865,0,0,0,1.436.718A1.6,1.6,0,0,0,55.62,57.8a6.364,6.364,0,0,0,.539-1.975Zm13.643,5.206H69.442l-.718-3.77H64.236l-.9,3.77H60.107l4.847-19.387h3.052Zm-4.667-6.642L66.39,46.314l-1.616,8.078Zm14.9-10.053H79.674V61.034H76.623V44.34H73.391V41.647h9.514V44.34Zm5.206,16.695H85.06V41.647h3.052Zm13.1-9.694c0,3.77,0,6.642-1.436,8.258a5.206,5.206,0,0,1-7.54,0C90.8,57.983,90.8,55.11,90.8,51.341s0-6.642,1.436-8.258a5.206,5.206,0,0,1,7.54,0C101.4,44.7,101.216,47.571,101.216,51.341Zm-3.052,0c0-3.59,0-5.565-.718-6.462a1.865,1.865,0,0,0-1.436-.718,1.6,1.6,0,0,0-1.436.718c-.539.9-.718,2.872-.718,6.462s.18,5.565.718,6.462a1.865,1.865,0,0,0,1.436.718,1.6,1.6,0,0,0,1.436-.718C98.164,56.906,98.164,54.931,98.164,51.341Zm16.156,9.694h-2.693L106.96,49.546V61.034h-3.052V41.647h2.872l4.488,11.489V41.647h3.052Zm17.592-5.385c0,1.975-.359,3.411-1.257,4.308a5.564,5.564,0,0,1-3.77,1.257,5.925,5.925,0,0,1-3.77-1.257c-.9-.9-1.257-2.154-1.257-4.129h3.052a3.451,3.451,0,0,0,.539,2.154,1.767,1.767,0,0,0,1.436.539c.718,0,1.257-.18,1.436-.539a3.451,3.451,0,0,0,.539-2.154c0-2.154-.359-2.513-1.8-3.231l-2.334-.9c-1.975-.9-2.693-1.8-2.693-4.847a5.151,5.151,0,0,1,1.616-4.129,5.269,5.269,0,0,1,3.411-1.257,4,4,0,0,1,3.411,1.257c1.077.9,1.436,2.334,1.436,4.308h-3.052a2.8,2.8,0,0,0-.539-2.154,1.767,1.767,0,0,0-1.436-.539,1.4,1.4,0,0,0-1.257.539,2.888,2.888,0,0,0-.539,1.975c0,1.616.18,2.154,1.616,2.693l2.334.9c2.334.718,2.872,1.975,2.872,5.206Zm12.386.18a5.151,5.151,0,0,1-1.616,4.129,5.269,5.269,0,0,1-3.411,1.257A4.946,4.946,0,0,1,135.5,59.6c-1.436-1.616-1.436-4.488-1.436-8.258s0-6.642,1.436-8.258a4.946,4.946,0,0,1,3.77-1.616,4.469,4.469,0,0,1,3.411,1.257,6.708,6.708,0,0,1,1.616,4.129h-3.052a2.68,2.68,0,0,0-.539-1.8,1.865,1.865,0,0,0-1.436-.718,1.6,1.6,0,0,0-1.436.718c-.539.9-.718,2.872-.718,6.462s.179,5.565.718,6.462a1.865,1.865,0,0,0,1.436.718,1.6,1.6,0,0,0,1.436-.718,6.364,6.364,0,0,0,.539-1.975A17.416,17.416,0,0,1,144.3,55.828Zm12.386-4.488c0,3.77,0,6.642-1.436,8.258a5.206,5.206,0,0,1-7.54,0c-1.436-1.616-1.436-4.488-1.436-8.258s0-6.642,1.436-8.258a5.206,5.206,0,0,1,7.54,0C156.685,44.7,156.685,47.571,156.685,51.341Zm-3.052,0c0-3.59,0-5.565-.718-6.462a1.865,1.865,0,0,0-1.436-.718,1.6,1.6,0,0,0-1.436.718c-.539.9-.718,2.872-.718,6.462s.179,5.565.718,6.462a1.865,1.865,0,0,0,1.436.718,1.6,1.6,0,0,0,1.436-.718C153.454,56.906,153.634,54.931,153.634,51.341Zm16.336,9.694h-3.231l-2.513-7.9h-1.8v7.9h-3.052V41.647h4.847c3.59,0,5.026,1.8,5.026,5.744,0,2.334-.539,4.129-2.334,5.026ZM166.2,47.391c0-1.616-.179-3.052-1.8-3.052h-1.8v5.924h1.8c1.616,0,1.8-1.257,1.8-2.872ZM180.56,61.034h-8.078V41.647h8.078V44.34h-5.026V49.9h4.308V52.6h-4.308v5.565h5.026Zm9.155-59.778h-2.872V8.976h-1.616V1.257h-2.693V0h7C189.716,0,189.716,1.257,189.716,1.257ZM192.947,0l2.513,6.821L197.973,0h1.975V8.976h-1.616V5.924l.179-3.949-2.334,7H195.1l-2.693-6.821.18,3.949V8.976h-1.616V0Z" transform="translate(20.673)"/>
</svg>
