<svg xmlns="http://www.w3.org/2000/svg" width="58" height="14" viewBox="0 0 58 14">
    <g fill="#FFF" fill-rule="evenodd">
        <path d="M24.73 10.31l.64 1.813c-1.296.705-2.543.906-3.688.906-3.723 0-5.711-2.35-5.711-5.59 0-3.173 2.325-5.758 5.997-5.758 1.23 0 2.24.218 2.965.537v2.115a6.14 6.14 0 0 0-2.915-.721c-2.425 0-3.588 1.762-3.588 3.793 0 2.183 1.365 3.71 3.538 3.71 1.129 0 1.954-.335 2.763-.805zm2.46 2.551V1.8h2.089l2.847 4.012c.37.52.64.94.892 1.376h.034c.22-.42.505-.89.86-1.443l2.577-3.945h2.105V12.86h-2.308V6.92c0-.437 0-.94.017-1.327h-.017c-.134.286-.572.924-.758 1.21l-1.987 3.054h-1.045L30.256 6.7c-.236-.319-.506-.671-.741-1.09h-.034c.017.385.017.889.017 1.241v6.01H27.19zm13.998 0V1.8h3.487c2.41 0 3.487 1.393 3.487 2.803 0 .907-.454 1.796-1.314 2.233v.033c1.331.353 2.072 1.427 2.072 2.67 0 1.678-1.314 3.323-3.941 3.323h-3.79zm2.308-1.88h1.18c1.28 0 1.92-.436 1.92-1.444 0-.856-.64-1.343-1.702-1.343h-1.398v2.787zm0-4.667h.876c1.01 0 1.533-.57 1.533-1.292 0-.756-.505-1.343-1.583-1.343h-.826v2.635zm6.924 5.708l.876-1.73c.707.47 1.55.823 2.526.823.86 0 1.719-.302 1.719-1.141 0-1.998-4.75-1.746-4.75-5.137 0-1.662 1.33-3.156 3.722-3.156 1.18 0 2.173.269 2.813.588v2.064c-.96-.47-1.853-.721-2.746-.721-.707 0-1.33.251-1.33 1.024 0 1.88 4.75 1.611 4.75 5.136 0 2.015-1.769 3.257-4.093 3.257-1.297 0-2.595-.353-3.487-1.007zM12.762 6.668L9.042.154 7.778 2.358 6.514.154 5.251 2.358 3.987.154.267 6.668l3.72 6.515 1.264-2.204 1.263 2.204 1.264-2.204 1.264 2.204 3.72-6.515zm-1.291 0l-2.43 4.255-2.428-4.255 2.429-4.254 2.429 4.254zm-7.484 4.255L1.558 6.668l2.43-4.254.617 1.08-1.811 3.174 1.81 3.174-.617 1.08zm2.527 0L4.085 6.668l2.43-4.254.617 1.08-1.81 3.174 1.81 3.174-.618 1.08z"/>
    </g>
</svg>
