<svg xmlns="http://www.w3.org/2000/svg" width="34" height="35" viewBox="0 0 34 35">
    <g fill="#FFF" fill-rule="evenodd">
        <path fill-rule="nonzero" d="M.756 18.133H34v1H.756z"/>
        <path d="M8.527 32.402l.567 1.569c-1.15.61-2.256.785-3.272.785-3.303 0-5.066-2.035-5.066-4.839 0-2.746 2.062-4.984 5.32-4.984 1.09 0 1.987.19 2.63.465v1.831a5.557 5.557 0 0 0-2.585-.625c-2.152 0-3.184 1.526-3.184 3.284 0 1.889 1.21 3.211 3.139 3.211 1.001 0 1.733-.29 2.45-.697zm2.633 2.208v-9.575h1.853l2.525 3.473c.33.45.568.813.792 1.191h.03c.195-.363.449-.77.762-1.25l2.287-3.414h1.868v9.575H19.23v-5.143c0-.378 0-.814.015-1.148h-.015c-.12.247-.509.799-.673 1.046l-1.763 2.644h-.927l-1.987-2.731c-.21-.276-.449-.581-.658-.945h-.03c.015.335.015.77.015 1.076v5.201H11.16zm11.967 0v-9.575h1.853l2.526 3.473c.329.45.568.813.792 1.191h.03c.194-.363.448-.77.762-1.25l2.286-3.414h1.868v9.575h-2.047v-5.143c0-.378 0-.814.015-1.148h-.015c-.12.247-.508.799-.672 1.046l-1.764 2.644h-.926l-1.988-2.731c-.21-.276-.448-.581-.658-.945h-.03c.016.335.016.77.016 1.076v5.201h-2.048zM.403 15.867h1.94V8.16H.403zM4.166 15.867h1.94V3.627h-1.94zM7.93 15.867h1.94v-9.52H7.93zM23.31 15.867h2.266V2.72h-2.267zM27.399 15.867h2.267V6.8h-2.267zM31.488 15.867h2.267V0h-2.267zM11.693 15.867h1.94V1.813h-1.94zM15.456 15.867h1.941V5.893h-1.94zM19.22 15.867h2.267V1.813H19.22z"/>
    </g>
</svg>
