<svg xmlns="http://www.w3.org/2000/svg" width="76" height="100" viewBox="0 0 76 100">
    <path fill="#0090FF" fill-rule="evenodd" d="M30 99.5v.5h16v-.5h12V30h16v69.5h11-11v.5H58v-.5H46V50H30v49.5H18v.5H2v-.5h-12H2V67h16v32.5h12zM76 6.271v.224c-.117.115-.117.225-.117.34l-4.58 15.345c-.228.793-.912 1.243-1.6 1.243-.112 0-.34-.115-.457-.115-.917-.334-1.373-1.238-1.145-2.141L71.536 9.66 2.494 46.775c-.228.11-.573.225-.8.225-.573 0-1.146-.34-1.49-.903-.456-.79-.112-1.807.689-2.257L69.92 6.712 58.244 3.327c-.917-.335-1.373-1.238-1.145-2.142.34-.903 1.256-1.353 2.173-1.128L74.846 4.57c.116 0 .228.115.344.115 0 .114.117.114.117.114l.349.344c.116.114.228.34.344.564V6.271z"/>
</svg>
