<svg xmlns="http://www.w3.org/2000/svg" width="16" height="17" viewBox="0 0 16 17">
    <g fill="#2196F3" fill-rule="evenodd">
        <path d="M2 12.157h2v1.353a1.335 1.335 0 0 1-1.333 1.333.667.667 0 0 0 0 1.333 2.65 2.65 0 0 0 2-.92 2.65 2.65 0 0 0 2 .92.666.666 0 1 0 0-1.333 1.333 1.333 0 0 1-1.334-1.333V2.824c0-.737.597-1.334 1.334-1.334a.667.667 0 0 0 0-1.333 2.65 2.65 0 0 0-2 .921 2.65 2.65 0 0 0-2-.921.666.666 0 1 0 0 1.333A1.333 1.333 0 0 1 4 2.824v1.333H2a2 2 0 0 0-2 2v4a2 2 0 0 0 2 2zm-.667-6c0-.369.299-.667.667-.667h2v5.333H2a.667.667 0 0 1-.667-.666v-4z"/>
        <path d="M14 10.823H7.333a.666.666 0 1 0 0 1.334H14a2 2 0 0 0 2-2v-4a2 2 0 0 0-2-2H7.333a.666.666 0 1 0 0 1.333H14a.666.666 0 0 1 .667.667v4a.667.667 0 0 1-.667.666z"/>
    </g>
</svg>
