<svg id="Group_1568" data-name="Group 1568" xmlns="http://www.w3.org/2000/svg" viewBox="0 0 48 42">
  <defs>
    <style>
      .cls-1 {
        fill: #0090FF;
      }
    </style>
  </defs>
  <path id="Path_1520" data-name="Path 1520" class="cls-1" d="M0,30v3.8A4.122,4.122,0,0,0,4,38H23.1v2h-12a1,1,0,1,0,0,2h28a1,1,0,1,0,0-2h-14V38H44a4.122,4.122,0,0,0,4-4.2V30Zm24,6a2,2,0,1,1,2-2A2.006,2.006,0,0,1,24,36Z"/>
  <path id="Path_1521" data-name="Path 1521" class="cls-1" d="M44,0H4A4.122,4.122,0,0,0,0,4.2V28H48V4.2A4.122,4.122,0,0,0,44,0ZM23.9,13.3l-8.5,8.5h4.2a1.2,1.2,0,1,1,0,2.4h-7A1.216,1.216,0,0,1,11.4,23V16a1.2,1.2,0,1,1,2.4,0v4.2l8.5-8.5a1.04,1.04,0,0,1,1.6,0A1.041,1.041,0,0,1,23.9,13.3Zm15.5-.8a1.2,1.2,0,0,1-2.4,0V8.3l-9,9.1a1.04,1.04,0,0,1-1.6,0,1.115,1.115,0,0,1,0-1.6l9.1-9.1H31.3a1.2,1.2,0,1,1,0-2.4h7a1.216,1.216,0,0,1,1.2,1.2v7Z"/>
</svg>
