<svg id="Group_1583" data-name="Group 1583" xmlns="http://www.w3.org/2000/svg" viewBox="0 0 70 50.2">
  <defs>
    <style>
      .cls-1 {
        fill: #0090FF;
      }
    </style>
  </defs>
  <path id="Path_1708" data-name="Path 1708" class="cls-1" d="M20.5,16.5h15a.789.789,0,0,0,.8-.8A15.878,15.878,0,0,0,20.5,0a.789.789,0,0,0-.8.8v15A.849.849,0,0,0,20.5,16.5Z"/>
  <path id="Path_1709" data-name="Path 1709" class="cls-1" d="M35.5,18h-15a.741.741,0,0,0-.5,1.3L30.6,29.9a.785.785,0,0,0,1.1,0,15.5,15.5,0,0,0,4.6-11.1C36.2,18.3,35.9,18,35.5,18Z"/>
  <path id="Path_1710" data-name="Path 1710" class="cls-1" d="M16.8,19.9V5.2a.789.789,0,0,0-.8-.8A15.8,15.8,0,1,0,16,36a15.333,15.333,0,0,0,11.1-4.6.785.785,0,0,0,0-1.1Z"/>
  <rect id="Rectangle_883" data-name="Rectangle 883" class="cls-1" width="70" height="4" transform="translate(0 46.2)"/>
  <path id="Path_1711" data-name="Path 1711" class="cls-1" d="M67,14.1H62v-7a2.946,2.946,0,0,0-3-3H55a2.946,2.946,0,0,0-3,3v13H47a2.946,2.946,0,0,0-3,3v11H42a1,1,0,0,0,0,2H67a2.946,2.946,0,0,0,3-3v-16A3.009,3.009,0,0,0,67,14.1Zm-15,20H46v-11a.945.945,0,0,1,1-1h4a.945.945,0,0,1,1,1Zm8,0H54V7.1a.945.945,0,0,1,1-1h4a.945.945,0,0,1,1,1v27Zm8-1a.945.945,0,0,1-1,1H62v-17a.945.945,0,0,1,1-1h4a.945.945,0,0,1,1,1Z"/>
</svg>
