<svg xmlns="http://www.w3.org/2000/svg" width="17" height="25" viewBox="0 0 17 25">
    <path fill="#2196F3" fill-rule="evenodd" d="M10.8 8.617l-2.062 9.68c-.367 1.734-1.14 3.152-2.32 4.254-1.18 1.101-2.395 1.652-3.645 1.652-.687 0-1.193-.13-1.517-.392-.324-.262-.486-.592-.486-.99 0-.337.101-.633.304-.891.203-.258.496-.387.88-.387.241 0 .454.055.638.164.183.11.345.246.486.41.11.133.233.313.37.54.136.226.255.421.357.585.601-.047 1.115-.453 1.54-1.219.426-.765.796-1.859 1.108-3.28L8.61 8.616H6.324l.246-1.066h2.262l.164-.797a8.524 8.524 0 0 1 .89-2.45 8.177 8.177 0 0 1 1.384-1.85 5.777 5.777 0 0 1 1.728-1.179c.645-.285 1.264-.427 1.857-.427.688 0 1.194.13 1.518.392.324.262.486.592.486.99 0 .336-.095.633-.287.891-.191.258-.49.387-.896.387-.242 0-.453-.053-.633-.158a1.79 1.79 0 0 1-.48-.416 3.84 3.84 0 0 1-.376-.551 7.689 7.689 0 0 0-.351-.574c-.54.023-1.016.378-1.43 1.066-.414.688-.789 1.832-1.125 3.434l-.258 1.242h2.942l-.246 1.066H10.8z"/>
</svg>
