<svg id="Group_1570" data-name="Group 1570" xmlns="http://www.w3.org/2000/svg" viewBox="0 0 36.5 55.8">
  <defs>
    <style>
      .cls-1 {
        fill: #0090FF;
      }
    </style>
  </defs>
  <rect id="Rectangle_846" data-name="Rectangle 846" class="cls-1" width="14" height="2" transform="translate(11.2 53.8)"/>
  <g id="Group_1513" data-name="Group 1513">
    <path id="Path_1548" data-name="Path 1548" class="cls-1" d="M8.2,38.9v2.2H22.5v2H8.2v2.2h10v2H8.2v1.8a1.265,1.265,0,0,0,1.4,1.4c.9,0,16.4-.3,17.2-.3a1.367,1.367,0,0,0,1.4-1.4c0-.7.2-4.6.2-10H8.2Z"/>
    <path id="Path_1549" data-name="Path 1549" class="cls-1" d="M8.2,36.9h9V24.8a6.568,6.568,0,0,1-5.6-6.5h2a4.6,4.6,0,0,0,9.2,0h2a6.568,6.568,0,0,1-5.6,6.5V36.9h9.2v-.1c0-6.4,8.1-9.5,8.1-18.5A18.25,18.25,0,1,0,0,18.2c0,9.1,8.2,12.2,8.2,18.5Z"/>
  </g>
</svg>
