<svg xmlns="http://www.w3.org/2000/svg" viewBox="0 0 47.718 48">
  <defs>
    <style>
      .cls-1 {
        fill: #0090FF;
      }
    </style>
  </defs>
  <g id="Group_1567" data-name="Group 1567" transform="translate(0.041)">
    <path id="Path_1518" data-name="Path 1518" class="cls-1" d="M33.2,34.7l-2.5-1.5a16.2,16.2,0,0,0,0-4.4l2.5-1.5a1.107,1.107,0,0,0,.4-1.4l-4-6.9a1.107,1.107,0,0,0-1.4-.4l-2.5,1.5a13.036,13.036,0,0,0-3.8-2.2V15a.945.945,0,0,0-1-1h-8a.945.945,0,0,0-1,1v2.9a13.036,13.036,0,0,0-3.8,2.2L5.6,18.6a1.342,1.342,0,0,0-1.5.4l-4,6.9a1.012,1.012,0,0,0,.4,1.4L3,28.8a16.208,16.208,0,0,0,0,4.4L.5,34.7A.984.984,0,0,0,.1,36l4,6.9a1.107,1.107,0,0,0,1.4.4L8,41.9a13.036,13.036,0,0,0,3.8,2.2V47a.945.945,0,0,0,1,1h8a.945.945,0,0,0,1-1V44.1a13.036,13.036,0,0,0,3.8-2.2l2.5,1.5a1.012,1.012,0,0,0,1.4-.4l4-6.9A.9.9,0,0,0,33.2,34.7ZM16.9,38a7,7,0,1,1,7-7A6.957,6.957,0,0,1,16.9,38Z"/>
    <path id="Path_1519" data-name="Path 1519" class="cls-1" d="M47.1,11.9l-1.4-.8a8.1,8.1,0,0,0,0-2.2l1.4-.8a1.107,1.107,0,0,0,.4-1.4l-2-3.5a1.107,1.107,0,0,0-1.4-.4l-1.4.8a7.24,7.24,0,0,0-1.9-1.1V1a.945.945,0,0,0-1-1h-4a.945.945,0,0,0-1,1V2.6a7.24,7.24,0,0,0-1.9,1.1l-1.4-.8a1.012,1.012,0,0,0-1.4.4l-2,3.5a1.012,1.012,0,0,0,.4,1.4l1.5.7a8.1,8.1,0,0,0,0,2.2l-1.4.8a1.107,1.107,0,0,0-.4,1.4l2,3.5a1.107,1.107,0,0,0,1.4.4l1.4-.8a7.24,7.24,0,0,0,1.9,1.1V19a.945.945,0,0,0,1,1h4a.945.945,0,0,0,1-1V17.4a7.24,7.24,0,0,0,1.9-1.1l1.4.8a1.012,1.012,0,0,0,1.4-.4l2-3.5A1.062,1.062,0,0,0,47.1,11.9ZM37.9,14a4,4,0,1,1,4-4A4.012,4.012,0,0,1,37.9,14Z"/>
  </g>
</svg>
