<?xml version="1.0" encoding="UTF-8"?>
<svg width="79px" height="50px" viewBox="0 0 79 50" version="1.1" xmlns="http://www.w3.org/2000/svg" xmlns:xlink="http://www.w3.org/1999/xlink">
    <!-- Generator: Sketch 51.2 (57519) - http://www.bohemiancoding.com/sketch -->
    <title>Shape</title>
    <desc>Created with Sketch.</desc>
    <defs></defs>
    <g id="Screens" stroke="none" stroke-width="1" fill="none" fill-rule="evenodd">
        <g id="Admin---Dashboard-option2" transform="translate(-321.000000, -223.000000)" fill="#2196F3" fill-rule="nonzero">
            <g id="Group-5" transform="translate(250.000000, 168.000000)">
                <path d="M124.571429,76.4285714 C130.5,76.4285714 135.25,71.6428571 135.25,65.7142857 C135.25,59.7857143 130.5,55 124.571429,55 C118.642857,55 113.857143,59.7857143 113.857143,65.7142857 C113.857143,71.6428571 118.642857,76.4285714 124.571429,76.4285714 Z M96,76.4285714 C101.928571,76.4285714 106.678571,71.6428571 106.678571,65.7142857 C106.678571,59.7857143 101.928571,55 96,55 C90.0714286,55 85.2857143,59.7857143 85.2857143,65.7142857 C85.2857143,71.6428571 90.0714286,76.4285714 96,76.4285714 Z M96,83.5714286 C87.6785714,83.5714286 71,87.75 71,96.0714286 L71,105 L121,105 L121,96.0714286 C121,87.75 104.321429,83.5714286 96,83.5714286 Z M124.571429,83.5714286 C123.535714,83.5714286 122.357143,83.6428571 121.107143,83.75 C125.25,86.75 128.142857,90.7857143 128.142857,96.0714286 L128.142857,105 L149.571429,105 L149.571429,96.0714286 C149.571429,87.75 132.892857,83.5714286 124.571429,83.5714286 Z" id="Shape"></path>
            </g>
        </g>
    </g>
</svg>