<svg xmlns="http://www.w3.org/2000/svg" width="106" height="42" viewBox="0 0 106 42">
    <g fill="#2196F3" fill-rule="evenodd">
        <path d="M56.463 24.9l-15.837.276-.138-7.918 15.836-.276.14-8.207-15.837.277-.416-7.63-3.959.068C28.9 1.62 22.43 3.712 17.398 7.194c-4.475 2.907-7.244 6.35-8.306 10.33l-8.762.435.138 7.918 9.05-.158c.615 2.819 2.073 5.339 4.375 7.562 5.18 5.001 14 7.96 23.05 7.801l3.96-.069-.139-7.918 15.837-.277-.138-7.918zM19.45 27.526c-1.44-1.39-2.888-3.344-2.937-6.172-.07-3.96 3.275-6.846 4.952-8.007A27.283 27.283 0 0 1 32.143 9.2l.415 23.755c-5.1-.477-9.942-2.372-13.107-5.429zM105.67 24.041l-.138-7.918-9.05.158c-.615-2.819-2.073-5.339-4.375-7.562-5.467-5.28-14-7.96-23.05-7.801l-3.96.069.702 40.157 3.959-.069c7.353-.128 13.822-2.221 18.854-5.704 4.465-3.472 7.234-6.915 8.296-10.894l8.762-.436zm-21.424 4.334a27.283 27.283 0 0 1-10.677 4.147l-.415-23.755c5.388.755 10.23 2.65 13.395 5.707 1.44 1.39 2.888 3.344 2.937 6.172-.219 3.681-3.285 6.28-5.24 7.73z"/>
    </g>
</svg>
