<svg xmlns="http://www.w3.org/2000/svg" width="38" height="34" viewBox="0 0 38 34">
    <path fill="#ba0c2f" fill-rule="evenodd" d="M36.589 28.018L22.006 2.296c-.677-1.278-2.03-2.03-3.458-2.03-1.428 0-2.781.752-3.458 2.03L.507 28.018c-.676 1.203-.676 2.783 0 3.986.752 1.204 2.03 1.956 3.458 1.956h29.166c1.428 0 2.706-.752 3.458-1.956.676-1.203.676-2.707 0-3.986zm-16.087 1.279c-.526.45-1.052.677-1.728.677-.677 0-1.278-.226-1.73-.677-.526-.452-.751-1.053-.751-1.805 0-.677.225-1.279.752-1.73.45-.451 1.052-.752 1.729-.752.676 0 1.277.225 1.804.752.45.451.751 1.053.751 1.73-.075.752-.3 1.353-.827 1.805zm.677-16.546l-.601 7.295c-.076.902-.226 1.58-.451 2.106-.301.526-.752.827-1.353.827-.602 0-1.128-.3-1.353-.827-.226-.452-.376-1.204-.452-2.106l-.45-7.07c-.076-1.429-.15-2.407-.15-3.008 0-.903.225-1.58.676-2.106.45-.527 1.127-.752 1.879-.752.977 0 1.578.376 1.954 1.053.301.601.451 1.504.451 2.632-.075.602-.15 1.279-.15 1.956z"/>
</svg>
