<?xml version="1.0" encoding="UTF-8"?>
<svg width="20px" height="20px" viewBox="0 0 20 20" version="1.1" xmlns="http://www.w3.org/2000/svg" xmlns:xlink="http://www.w3.org/1999/xlink">
    <!-- Generator: Sketch 51.2 (57519) - http://www.bohemiancoding.com/sketch -->
    <title>Shape</title>
    <desc>Created with Sketch.</desc>
    <defs></defs>
    <g id="Components" stroke="none" stroke-width="1" fill="none" fill-rule="evenodd">
        <g id="Searchbar-States" transform="translate(-111.000000, -851.000000)" fill="#343441" fill-rule="nonzero">
            <g id="Widget-Search" transform="translate(91.000000, 833.000000)">
                <g id="Search-Copy">
                    <path d="M34.2938822,30.5786164 L33.3905089,30.5786164 L33.0703259,30.2698685 C34.1909663,28.9662664 34.8656375,27.2738708 34.8656375,25.4328188 C34.8656375,21.3276158 31.5380217,18 27.4328188,18 C23.3276158,18 20,21.3276158 20,25.4328188 C20,29.5380217 23.3276158,32.8656375 27.4328188,32.8656375 C29.2738708,32.8656375 30.9662664,32.1909663 32.2698685,31.0703259 L32.5786164,31.3905089 L32.5786164,32.2938822 L38.2961692,38 L40,36.2961692 L34.2938822,30.5786164 Z M27.4328188,30.5786164 C24.5854774,30.5786164 22.2870212,28.2801601 22.2870212,25.4328188 C22.2870212,22.5854774 24.5854774,20.2870212 27.4328188,20.2870212 C30.2801601,20.2870212 32.5786164,22.5854774 32.5786164,25.4328188 C32.5786164,28.2801601 30.2801601,30.5786164 27.4328188,30.5786164 Z" id="Shape"></path>
                </g>
            </g>
        </g>
    </g>
</svg>
