<?xml version="1.0" encoding="UTF-8"?>
<svg width="16px" height="16px" viewBox="0 0 16 16" version="1.1" xmlns="http://www.w3.org/2000/svg" xmlns:xlink="http://www.w3.org/1999/xlink">
    <!-- Generator: Sketch 51.2 (57519) - http://www.bohemiancoding.com/sketch -->
    <title>Shape</title>
    <desc>Created with Sketch.</desc>
    <defs></defs>
    <g id="Components" stroke="none" stroke-width="1" fill="none" fill-rule="evenodd">
        <g id="Searchbar-States" transform="translate(-995.000000, -1199.000000)" fill="#343441" fill-rule="nonzero">
            <g id="Widget-Search" transform="translate(91.000000, 833.000000)">
                <g id="Nav/tools" transform="translate(0.000000, 345.000000)">
                    <g id="settings" transform="translate(904.000000, 17.000000)">
                        <path d="M0,8 L4,8 L4,4 L0,4 L0,8 Z M6,20 L10,20 L10,16 L6,16 L6,20 Z M0,20 L4,20 L4,16 L0,16 L0,20 Z M0,14 L4,14 L4,10 L0,10 L0,14 Z M6,14 L10,14 L10,10 L6,10 L6,14 Z M12,4 L12,8 L16,8 L16,4 L12,4 Z M6,8 L10,8 L10,4 L6,4 L6,8 Z M12,14 L16,14 L16,10 L12,10 L12,14 Z M12,20 L16,20 L16,16 L12,16 L12,20 Z" id="Shape"></path>
                    </g>
                </g>
            </g>
        </g>
    </g>
</svg>