<svg xmlns="http://www.w3.org/2000/svg" viewBox="0 0 52.5 61.5">
  <defs>
    <style>
      .cls-1 {
        fill: #0090FF;
      }
    </style>
  </defs>
  <path id="Path_1695" data-name="Path 1695" class="cls-1" d="M51.2,28.5H44.8V23.7h4.3a.987.987,0,0,0,1-.9V6.6a.923.923,0,0,0-1-.9H33.3a.987.987,0,0,0-1,.9V11H21V1.2C21,.5,20.6,0,20,0H1.1A1.135,1.135,0,0,0,0,1.2V29.5a1.2,1.2,0,0,0,1.1,1.2h9.7v9.1H1.4a.945.945,0,0,0-1,1v16a.945.945,0,0,0,1,1h21a.945.945,0,0,0,1-1V55.1h2.2v5.2a1.24,1.24,0,0,0,1.3,1.2H51.2a1.309,1.309,0,0,0,1.3-1.2V29.7A1.309,1.309,0,0,0,51.2,28.5ZM33.3,6.8H49.2V22.7H44.9V12.1a.945.945,0,0,0-1-1H33.4V6.8Zm6.1,33.5v2H16v-2ZM16.2,33.9v-6h2v6Zm19-17.1a3.9,3.9,0,1,1,0,7.8,3.842,3.842,0,0,1-3.9-3.9A3.97,3.97,0,0,1,35.2,16.8Zm0,9.6a3.9,3.9,0,1,1,0,7.8,3.842,3.842,0,0,1-3.9-3.9A3.97,3.97,0,0,1,35.2,26.4Zm-11-2.5h2v10h-2Zm-4-6.5h2V34h-2ZM1.1,29.6a.349.349,0,0,1-.1-.2V1.2A.349.349,0,0,1,1.1,1H20V11.1H11.8a.945.945,0,0,0-1,1V29.6H1.1ZM22.4,56.8H1.4v-16h9.4V54.1a.945.945,0,0,0,1,1H22.4ZM16,47.1v-2H39.3v2ZM51.5,60.3c0,.1-.1.2-.3.2H26.9c-.1,0-.3-.1-.3-.2V55.1H43.8a.945.945,0,0,0,1-1V29.5h6.4c.1,0,.3.1.3.2Z"/>
</svg>
