<svg xmlns="http://www.w3.org/2000/svg" width="123" height="35" viewBox="0 0 123 35">
    <g fill="#FFF" fill-rule="evenodd">
        <path fill-rule="nonzero" d="M9.284 2.086c-4.666 0-8.44 3.962-8.44 8.861 0 6.646 8.44 16.457 8.44 16.457s8.44-9.81 8.44-16.457c0-4.899-3.775-8.861-8.44-8.861zm0 12.026c-1.664 0-3.015-1.418-3.015-3.165s1.35-3.165 3.015-3.165c1.663 0 3.014 1.418 3.014 3.165s-1.35 3.165-3.014 3.165zM0 34.156h18.567V32.89H0z"/>
        <path d="M32.987 13.768c-.037 1.188-.427 2.21-1.096 2.822-.594.538-1.3.835-2.283.835-1.263 0-2.006-.482-2.563-1.114-.984-1.114-.965-3.026-.965-5.625 0-2.6-.019-4.55.965-5.663.557-.632 1.3-1.114 2.563-1.114 1.002 0 1.708.297 2.302.854.65.612 1.021 1.615 1.058 2.785h-2.08c-.018-.483-.092-.947-.315-1.281-.186-.297-.464-.483-.965-.483-.502 0-.799.204-.984.501-.39.632-.465 1.968-.465 4.382 0 2.414.075 3.75.465 4.382.185.297.482.501.984.501.501 0 .798-.185.984-.483.223-.334.297-.817.315-1.3h2.08zm8.87-3.1c0 2.598.018 4.53-.966 5.643-.557.632-1.3 1.114-2.562 1.114-1.262 0-2.005-.482-2.562-1.114-.984-1.114-.966-3.045-.966-5.644 0-2.6-.018-4.53.966-5.644.557-.632 1.3-1.114 2.562-1.114 1.263 0 2.005.482 2.562 1.114.984 1.114.966 3.045.966 5.644zm-2.08 0c0-2.415-.055-3.751-.445-4.383-.186-.297-.502-.501-1.003-.501-.501 0-.798.204-.984.501-.39.632-.464 1.968-.464 4.382 0 2.414.074 3.75.464 4.382.186.297.483.501.984.501s.817-.204 1.003-.501c.39-.631.445-1.968.445-4.382zm13.252 6.609h-2.08V9.033l-1.8 5.422h-1.152l-1.763-5.329v8.15h-2.08V4.058h1.875l2.563 6.944 2.543-6.944h1.894v13.22zm11.525 0h-2.08V9.033l-1.8 5.422h-1.151l-1.764-5.329v8.15h-2.08V4.058h1.875l2.563 6.944 2.543-6.944h1.894v13.22zm8.202 0h-5.552V4.057h5.552v1.875h-3.472v3.751h2.989v1.875h-2.99v3.844h3.473v1.875zm9.371 0h-2.172l-1.727-5.422h-1.17v5.422h-2.08V4.057h3.343c2.414 0 3.379 1.17 3.379 3.9 0 1.633-.334 2.803-1.541 3.453l1.968 5.867zm-2.506-9.32c0-1.096-.168-2.025-1.282-2.025h-1.28V9.98h1.28c1.114 0 1.282-.928 1.282-2.024zm11.209 5.81c-.037 1.189-.427 2.21-1.096 2.823-.594.538-1.3.835-2.283.835-1.263 0-2.006-.482-2.563-1.114-.984-1.114-.965-3.026-.965-5.625 0-2.6-.019-4.55.965-5.663.557-.632 1.3-1.114 2.563-1.114 1.002 0 1.708.297 2.302.854.65.612 1.021 1.615 1.058 2.785h-2.08c-.018-.483-.092-.947-.315-1.281-.185-.297-.464-.483-.965-.483-.502 0-.799.204-.984.501-.39.632-.465 1.968-.465 4.382 0 2.414.075 3.75.465 4.382.185.297.482.501.984.501.501 0 .798-.185.984-.483.223-.334.297-.817.315-1.3h2.08zm4.247 3.51h-2.08V4.057h2.08v13.22zm10.114 0h-2.173l-.538-2.618h-3.064l-.52 2.618h-2.19l3.249-13.22h2.024l3.212 13.22zm-3.101-4.493l-1.133-5.533-1.132 5.533h2.265zm10.3 4.493h-5.552V4.057h2.08v11.345h3.472v1.875zM30.772 34.156H26.23V23.34h1.702v9.282h2.84v1.534zm6.76-5.408c0 2.127.016 3.707-.79 4.618-.455.517-1.063.912-2.096.912-1.033 0-1.64-.395-2.096-.912-.805-.911-.79-2.491-.79-4.618 0-2.127-.015-3.707.79-4.618.455-.517 1.063-.912 2.096-.912 1.033 0 1.64.395 2.096.912.806.911.79 2.491.79 4.618zm-1.701 0c0-1.975-.046-3.069-.365-3.585-.152-.243-.41-.41-.82-.41s-.653.167-.805.41c-.32.516-.38 1.61-.38 3.585 0 1.975.06 3.069.38 3.585.152.243.395.41.805.41.41 0 .668-.167.82-.41.32-.516.365-1.61.365-3.585zm8.598 2.537c-.03.972-.35 1.808-.896 2.309-.486.44-1.063.684-1.869.684-1.033 0-1.64-.395-2.096-.912-.805-.911-.79-2.476-.79-4.603s-.015-3.722.79-4.633c.456-.517 1.063-.912 2.096-.912.82 0 1.398.243 1.884.7.532.5.836 1.32.866 2.278h-1.701c-.016-.395-.076-.775-.259-1.048-.152-.243-.38-.395-.79-.395-.41 0-.653.167-.805.41-.319.516-.38 1.61-.38 3.585 0 1.975.061 3.069.38 3.585.152.243.395.41.805.41.41 0 .654-.152.806-.395.182-.273.243-.668.258-1.063h1.701zm7.535 2.871h-1.777l-.44-2.142H47.24l-.426 2.142h-1.792L47.68 23.34h1.656l2.628 10.816zm-2.537-3.676l-.927-4.527-.926 4.527h1.853zm8.28-5.606h-1.824v9.282h-1.701v-9.282h-1.808V23.34h5.332v1.534zm2.931 9.282h-1.701V23.34h1.701v10.816zm7.307-5.408c0 2.127.015 3.707-.79 4.618-.455.517-1.063.912-2.096.912-1.033 0-1.64-.395-2.097-.912-.805-.911-.79-2.491-.79-4.618 0-2.127-.015-3.707.79-4.618.456-.517 1.064-.912 2.097-.912s1.64.395 2.096.912c.805.911.79 2.491.79 4.618zm-1.701 0c0-1.975-.046-3.069-.365-3.585-.152-.243-.41-.41-.82-.41s-.653.167-.805.41c-.32.516-.38 1.61-.38 3.585 0 1.975.06 3.069.38 3.585.152.243.395.41.805.41.41 0 .668-.167.82-.41.32-.516.365-1.61.365-3.585zm8.993 5.408h-1.504l-2.552-6.426v6.426H69.48V23.34h1.519l2.537 6.426V23.34h1.701v10.816zm9.768-2.993c0 1.11-.152 1.854-.699 2.385-.44.426-1.154.714-2.111.714-.942 0-1.641-.258-2.097-.714-.516-.516-.699-1.185-.699-2.324h1.702c0 .577.06.942.304 1.215.152.168.41.29.79.29.395 0 .653-.107.82-.305.228-.258.289-.623.289-1.2 0-1.154-.183-1.428-1.018-1.777l-1.292-.532c-1.093-.456-1.503-1.048-1.503-2.72 0-.971.288-1.761.88-2.293.472-.41 1.08-.653 1.854-.653.866 0 1.504.228 1.944.653.562.547.76 1.322.76 2.355h-1.701c0-.487-.03-.866-.259-1.155-.152-.197-.395-.319-.76-.319-.349 0-.561.122-.728.304-.198.228-.29.592-.29 1.063 0 .881.138 1.155.897 1.459l1.276.516c1.292.517 1.64 1.215 1.64 3.038zm6.851.122c-.03.972-.35 1.808-.896 2.309-.486.44-1.063.684-1.869.684-1.033 0-1.64-.395-2.096-.912-.805-.911-.79-2.476-.79-4.603s-.015-3.722.79-4.633c.456-.517 1.063-.912 2.096-.912.82 0 1.398.243 1.884.7.532.5.836 1.32.866 2.278H90.14c-.016-.395-.076-.775-.259-1.048-.152-.243-.38-.395-.79-.395-.41 0-.653.167-.805.41-.319.516-.38 1.61-.38 3.585 0 1.975.061 3.069.38 3.585.152.243.395.41.805.41.41 0 .654-.152.806-.395.182-.273.243-.668.258-1.063h1.701zm6.912-2.537c0 2.127.015 3.707-.79 4.618-.456.517-1.063.912-2.096.912-1.033 0-1.64-.395-2.097-.912-.805-.911-.79-2.491-.79-4.618 0-2.127-.015-3.707.79-4.618.456-.517 1.064-.912 2.097-.912s1.64.395 2.096.912c.805.911.79 2.491.79 4.618zm-1.701 0c0-1.975-.046-3.069-.365-3.585-.152-.243-.41-.41-.82-.41s-.653.167-.805.41c-.32.516-.38 1.61-.38 3.585 0 1.975.06 3.069.38 3.585.152.243.395.41.805.41.41 0 .668-.167.82-.41.32-.516.365-1.61.365-3.585zm9.084 5.408h-1.777l-1.413-4.436h-.957v4.436h-1.702V23.34h2.735c1.975 0 2.765.957 2.765 3.19 0 1.337-.274 2.294-1.261 2.826l1.61 4.8zm-2.05-7.626c0-.896-.137-1.656-1.049-1.656h-1.048v3.312h1.048c.912 0 1.048-.76 1.048-1.656zm8.005 7.626h-4.542V23.34h4.542v1.534h-2.84v3.069h2.445v1.534h-2.446v3.145h2.841v1.534z"/>
        <text font-family="Roboto-Medium, Roboto" font-size="7" font-weight="400" transform="translate(0 -1)">
            <tspan x="113.143" y="6.114">TM</tspan>
        </text>
    </g>
</svg>
