<?xml version="1.0" encoding="utf-8"?>
<!-- Generator: Adobe Illustrator 22.0.1, SVG Export Plug-In . SVG Version: 6.00 Build 0)  -->
<svg version="1.1" id="Layer_1" xmlns="http://www.w3.org/2000/svg" xmlns:xlink="http://www.w3.org/1999/xlink" x="0px" y="0px"
	 viewBox="0 0 1278.4 319.3" style="enable-background:new 0 0 200 50;" xml:space="preserve">
<style type="text/css">
	.st0{fill:#FFFFFF;}
</style>
<g>
	<g>
		<path class="st0" d="M290,251.8l-9.1-7.2l-22.9-18.1l-9.2-7.9l-10.7-5.6l-10.8-1.1l-11.5,1.2l-14.3,3.6l-16,1.1l-9.5-9.8l-9.9-7.4
			l-7.5-5.9l-8.3-5l-11.3-1.3l-5.3,1.9l-9.9,6.2l-9.9-1.5h-6.6l-8.1,6.7l-23.1,17.1l-13.5,7.8l-9.9,2.1l-8-2.4L26.3,235l-7.9-0.9
			l0,0c26.8,50.6,80,85.1,141.2,85.1C213.5,319.3,261.1,292.6,290,251.8L290,251.8z"/>
		<path class="st0" d="M159.6,0C71.5,0,0,71.5,0,159.6c0,22.4,4.6,43.7,12.9,63l8.8,0.9l2.8,0.3l19.7-9.2l9.3,2.7l5.5-1.1l11.8-6.8
			l22.1-16.4l10.9-9.1l11.7,0.1l6.3,1l7.9-4.9l8.2-3l16.2,1.9l11.2,6.8l7.7,6.1l10.8,8.1l6.2,6.5l10.4-0.7l14.1-3.5l13-1.3l14.1,1.4
			l14.1,7.6l9.4,8.1l22.7,18l8.4,6.5c14.8-24.2,23.2-52.6,23.2-83C319.3,71.5,247.8,0,159.6,0z M102.9,158.9h-6.8
			c-2.2,0-3.7-1.5-3.7-3.9v-20.7H58.4c-2.2,0-3.7-1.5-3.7-3.8v-4.4c0-1.6,0.6-3.2,1.9-4.9l34.1-42.1c1.8-2.3,3.8-3.4,5.9-3.4h6.2
			c2.3,0,3.8,1.5,3.8,3.7l0,75.8C106.8,157.4,105.1,158.9,102.9,158.9z M185.9,155.2c0,2.2-1.5,3.8-3.8,3.8h-54.6
			c-2.3,0-3.9-1.5-3.9-3.8v-3.4c0-4.7,1-9.1,2.8-12.9c1.8-3.8,4.3-7,7.3-9.4c2.8-2.3,6-4.4,9.4-6.3c3.3-1.8,6.6-3.6,10-5.1
			c3.2-1.5,6.1-3.1,8.8-4.8c5.4-3.3,8-7.3,8-12c0-3.5-1.3-6.5-4.1-8.9c-2.8-2.6-6.6-3.8-11.5-3.8c-5,0-8.6,1.2-11.3,3.8
			c-2.7,2.5-4,5.7-4,9.6c0,2.2-1.5,3.8-3.8,3.8h-7.1c-2.2,0-3.7-1.6-3.7-3.8c0-7.4,2.6-13.8,7.9-19.1c5.2-5.3,12.7-7.9,22.1-7.9
			c9.4,0,16.9,2.5,22.2,7.5c5.3,5,8,11.1,8,18.2c0,4.8-1.2,9.2-3.7,13.1c-2.4,3.8-5.4,6.9-8.9,9.1c-3.3,2.1-6.9,4.2-10.8,6.3
			c-3.9,2.1-7.5,4-10.9,5.7c-3,1.6-5.7,3.6-7.8,6c-1.4,1.6-2.3,3.2-2.8,4.9h31.8v-5.4c0-2.2,1.5-3.7,3.7-3.7h6.9
			c2.3,0,3.8,1.5,3.8,3.7L185.9,155.2L185.9,155.2z M255.8,82.4c0,7.9-1.9,14.9-5.8,20.6c-1.7,2.6-3.4,5.1-5.4,7.5
			c-1.8,2.4-3.7,4.9-5.5,7.7c-1.8,2.7-3.5,5.7-5.1,9c-3.3,7-5,16.4-5,27.9c0,2.3-1.5,3.9-3.8,3.9h-6.9c-2.2,0-3.7-1.5-3.7-3.8
			c0-9,0.9-17,2.7-23.8c1.8-6.8,4-12.2,6.7-16.1c2.5-3.8,5.1-7.2,7.6-10.1c5-5.7,7.9-11.4,8.7-17.1h-31.7v5.4c0,2.2-1.5,3.8-3.7,3.8
			H198c-2.3,0-3.9-1.5-3.9-3.8V78.7c0-2.2,1.5-3.7,3.9-3.7h54.1c2.2,0,3.7,1.5,3.7,3.7L255.8,82.4L255.8,82.4z"/>
		<polygon class="st0" points="92.4,121.8 92.4,96.7 72.1,121.8 		"/>
	</g>
	<path class="st0" d="M424.1,116.6h-45.2c-2.6,0-4.1,1.6-4.1,4.4v73.4c0,2.7,1.5,4.4,4.1,4.4h5.1c2.6,0,4.1-1.7,4.1-4.4v-30.6h31.2
		c2.8,0,4.4-1.4,4.4-3.9v-4.1c0-2.4-1.7-3.9-4.4-3.9h-31.2v-23.5h36c2.8,0,4.4-1.4,4.4-3.9v-4.1C428.5,118,426.8,116.6,424.1,116.6z
		"/>
	<path class="st0" d="M479.7,145.9c-4.9-6-12-9-21.3-9c-9.2,0-16.4,3-21.3,9c-4.8,5.9-7.2,13.4-7.2,22.4c0,9,2.4,16.5,7.2,22.4
		c4.9,6,12,9,21.3,9c9.3,0,16.4-3,21.3-9c4.8-5.9,7.2-13.4,7.2-22.4C486.9,159.4,484.5,151.8,479.7,145.9z M458.5,189.8
		c-4.7,0-8.3-1.7-11.1-5.1c-2.8-3.5-4.3-9-4.3-16.4c0-7.4,1.4-12.9,4.3-16.4c2.8-3.4,6.5-5.1,11.1-5.1c4.7,0,8.3,1.7,11.2,5.1
		c2.8,3.5,4.3,9,4.3,16.4c0,7.4-1.4,12.9-4.3,16.4C466.8,188.1,463.2,189.8,458.5,189.8z"/>
	<path class="st0" d="M539.6,137.9h-4.7c-2.4,0-3.8,1.4-3.8,3.9v30.4c0,6.6-1.2,11.2-3.4,13.8c-2.2,2.6-5.4,3.8-9.7,3.8
		c-3.3,0-5.9-0.8-8.1-2.6c-1.4-1.1-3.1-4.3-3.1-12.7v-32.8c0-2.4-1.4-3.9-3.9-3.9h-4.8c-2.4,0-3.9,1.4-3.9,3.9v35.4
		c0,6.9,1.6,12.4,4.8,16.4c3.2,4.1,8.4,6.2,15.3,6.2c4.2,0,7.9-0.7,10.9-2.1c2.1-1,4-2.3,5.9-3.9v1.2c0,2.4,1.4,3.9,3.9,3.9h4.6
		c2.4,0,3.9-1.4,3.9-3.9v-53.2C543.5,139.3,542,137.9,539.6,137.9z"/>
	<path class="st0" d="M588.5,137.6c-1.1-0.5-3-0.7-5.6-0.7c-3.9,0-7.2,0.9-9.9,2.8c-1.5,1-2.9,2.4-4.2,4.1v-2c0-2.4-1.4-3.9-3.9-3.9
		h-4.7c-2.4,0-3.9,1.4-3.9,3.9v53.2c0,2.4,1.4,3.9,3.8,3.9h4.7c2.4,0,3.8-1.4,3.8-3.9v-27.7c0-6.4,1.3-11.5,4-15.1
		c3.3-4.5,7.5-6,13.1-4.9c1.6,0.3,2.7-0.4,3-1.7l1.3-4.6C590.6,139.5,589.9,138.2,588.5,137.6z"/>
	<path class="st0" d="M670,116.6h-60.5c-4.1,0-4.5,2.7-4.5,3.9v4.5c0,1.2,0.4,3.9,4.5,3.9h23.5v65.6c0,2.8,1.5,4.4,4.1,4.4h5.1
		c2.6,0,4.1-1.7,4.1-4.4v-65.6H670c4.1,0,4.5-2.7,4.5-3.9v-4.5C674.5,119.3,674.1,116.6,670,116.6z"/>
	<path class="st0" d="M743.8,138.9c-0.4-0.5-1.1-1.1-2.5-1.1h-5.8c-1.9,0-3.3,1.2-3.8,3.2l-8.2,36.6l-1.1,4.5
		c-0.4-1.7-0.8-3.2-1.1-4.6L710.8,141c-0.7-2.8-2.7-3.2-3.8-3.2h-5c-1.1,0-3.1,0.4-3.9,3.1l-10.6,36.6c-0.3,1.4-0.7,2.9-1.1,4.6
		l-9.2-41.1c-0.5-2-1.9-3.2-3.8-3.2h-5.8c-1.4,0-2.1,0.6-2.5,1.1c-0.6,0.8-0.7,1.9-0.3,3.4l13.8,52.1c0.9,3.6,2.9,4.4,4.3,4.4h6.7
		c1.4,0,3.4-0.8,4.4-4.4l10.2-36.7c0.1-0.6,0.3-1.1,0.4-1.6c0.1,0.5,0.3,1,0.4,1.6l10.2,36.6c1,3.6,2.9,4.4,4.4,4.4h6.7
		c1.4,0,3.4-0.8,4.3-4.4l13.8-52.1C744.6,140.8,744.4,139.7,743.8,138.9z"/>
	<path class="st0" d="M802.2,169.5c0-11.2-2.5-19.5-7.4-24.7c-4.9-5.2-11.2-7.9-18.6-7.9c-8.9,0-15.9,2.9-20.7,8.6
		c-4.8,5.7-7.2,13.3-7.2,22.8c0,9.4,2.3,17.1,6.9,22.7c4.6,5.7,11.9,8.7,21.5,8.7c7.5,0,12.8-1.2,16.4-3.8c4.6-3.3,5.9-4.7,6.4-5.5
		c1.7-2.7,0.4-4.3-0.2-4.8l-3.3-2.8c-1.7-1.5-3.7-1.1-5.4,1.1c-1,1.3-2.6,2.6-4.7,4c-2.1,1.3-5.2,1.9-9.2,1.9
		c-3.8,0-7.1-1.3-10.1-3.9c-2.7-2.3-4.5-6.6-5.2-12.5h37.3C800.8,173.4,802.2,171.9,802.2,169.5z M775.9,146.7
		c4.4,0,7.7,1.7,9.9,5.2c2.1,3.3,3.4,7.2,3.7,11.5h-28.4c0.6-6.1,2.2-10.4,4.8-12.8C768.7,148,772,146.7,775.9,146.7z"/>
	<path class="st0" d="M855.9,143.1c-3.2-4.1-8.5-6.2-15.7-6.2c-4.3,0-8.1,0.7-11,2.1c-2.1,0.9-4,2.3-5.9,3.9v-1.2
		c0-2.4-1.4-3.9-3.8-3.9h-4.7c-2.4,0-3.9,1.4-3.9,3.9v53.2c0,2.4,1.4,3.9,3.8,3.9h4.7c2.4,0,3.8-1.4,3.8-3.9v-30.4
		c0-6.6,1.1-11.2,3.4-13.8c2.2-2.6,5.5-3.8,9.9-3.8c3.4,0,6.2,0.9,8.3,2.6c1.4,1.1,3.1,4.3,3.1,12.7v32.8c0,2.4,1.4,3.9,3.9,3.9h4.8
		c2.4,0,3.9-1.4,3.9-3.9v-35.4C860.6,152.7,859,147.1,855.9,143.1z"/>
	<path class="st0" d="M905.8,192.4l-1.8-4.3c-0.6-1.4-1.6-1.6-2.1-1.6c-0.5,0-1,0.2-1.5,0.6c-0.4,0.3-1.3,0.9-3.3,1.7
		c-3.4,1.4-5.6,1.3-7.2-0.4c-0.5-0.5-1.3-2-1.3-6.6v-33.9h10.4c3.6,0,3.9-2.5,3.9-3.3v-3.4c0-0.8-0.3-3.3-3.9-3.3h-10.4v-12.8
		c0-2.4-1.6-3.3-3-3.3h-1.9c-1.3,0-2.2,1.3-2.9,2.6l-3.9,7c-0.5,0.9-0.7,1.8-0.7,2.8v3.6h-5.2c-3.6,0-3.9,2.5-3.9,3.3v3.4
		c0,0.8,0.3,3.3,3.9,3.3h5.2v34.6c0,5.3,1.1,9.6,3.3,12.6c2.3,3.1,5.7,4.7,9.9,4.7c2.9,0,5.8-0.4,8.7-1.2c2.9-0.8,5.1-1.7,6.6-2.6
		C906,195.1,906.4,193.8,905.8,192.4z"/>
	<path class="st0" d="M962.6,139c-0.4-0.5-1.1-1.1-2.5-1.1h-5.4c-1.2,0-2.8,0.5-3.7,3.1l-13.1,36.7c-0.5,1.8-0.9,3.4-1.3,4.6
		c-0.6-2.1-1-3.6-1.3-4.7l-13.2-36.6c-0.9-2.7-2.7-3.1-3.7-3.1H913c-1.4,0-2.1,0.6-2.5,1.1c-0.6,0.8-0.6,2-0.1,3.4l19.9,55.1l-1,2.8
		c-0.9,2.7-2.2,5.5-3.8,8.2c-2.2,3.7-5.4,4.1-9,2.7c-0.4-0.2-0.8-0.3-1.2-0.3c-0.5,0-1.6,0.2-2.2,1.8l-1.5,4.5
		c-0.5,1.4,0.1,2.7,1.5,3.3c1.9,1,4.3,1.4,7.5,1.4c6,0,10.5-2.2,13.5-6.5c2.8-4,6-10.9,9.6-20.9l18.7-52.1
		C963.2,140.9,963.1,139.8,962.6,139z"/>
	<path class="st0" d="M1039.9,168.3c-0.9-2.4-2.1-4.7-3.7-6.8c-1.6-2.2-4.2-4.1-7.8-6.1c-3.7-2-8.1-3.7-13.1-5.1
		c-4.8-1.3-8.4-2.5-10.6-3.5c-1.6-0.7-2.9-1.6-4-2.8c-1.1-1.2-1.7-2.4-2-3.4c-0.3-1.2-0.4-2.6-0.4-4c0-2.2,0.6-4.1,1.7-5.8
		c1.1-1.7,2.7-2.8,4.6-3.5c2.1-0.7,4.8-1.1,8-1.1c2.5,0,5,0.5,7.5,1.6c2.6,1.1,4.9,2.3,6.6,3.6c3.2,2.3,5.6,2.2,6.9,0.4l2.8-4.1
		c0.7-1,1.9-3.6-1.7-6.2c-2.8-2-6.1-3.7-9.7-4.9c-3.6-1.3-7.9-1.9-12.7-1.9c-4.2,0-8.4,0.6-12.5,1.7c-4.2,1.2-7.9,3.6-10.8,7.2
		c-2.9,3.6-4.4,8-4.4,13c0,3.2,0.3,6.1,1,8.6c0.7,2.6,2.1,5.1,4.2,7.6c2.1,2.4,4.9,4.5,8.4,6.2c3.4,1.6,7.4,3,11.9,4.4
		c4.4,1.3,7.8,2.5,9.9,3.5c1.2,0.6,2.5,1.4,3.6,2.4c1.1,1,1.9,2.2,2.4,3.6c0.5,1.5,0.8,3.1,0.8,4.9c0,2.4-0.6,4.3-1.8,6
		c-1.2,1.7-2.9,3-5,3.9c-2.1,0.9-4.8,1.4-7.9,1.4c-4.3,0-8-0.7-11-2c-3-1.3-6-3.1-8.9-5.2c-2.9-2.2-5.3-2.1-6.7,0l-2.9,4.2
		c-1,1.4-1.4,3.6,1.7,6.4c2.3,2.1,5.7,4,10.3,5.6c4.5,1.6,10.3,2.4,17.1,2.4c5.7,0,10.6-0.7,14.4-2.1c3.9-1.4,7.3-4.1,10.2-7.8
		c2.9-3.8,4.3-8.5,4.3-14C1041.2,173.5,1040.8,170.8,1039.9,168.3z"/>
	<path class="st0" d="M1103.2,169.5c0-11.2-2.5-19.5-7.4-24.7c-4.9-5.2-11.2-7.9-18.6-7.9c-8.9,0-15.9,2.9-20.7,8.6
		c-4.8,5.7-7.2,13.3-7.2,22.8c0,9.4,2.3,17.1,6.9,22.7c4.6,5.7,11.9,8.7,21.5,8.7c7.5,0,12.8-1.2,16.4-3.8c4.6-3.3,5.8-4.7,6.4-5.5
		c1.7-2.7,0.4-4.3-0.2-4.8l-3.3-2.8c-1.7-1.5-3.7-1.1-5.4,1.1c-1,1.3-2.6,2.6-4.7,3.9c-2.1,1.3-5.2,1.9-9.2,1.9
		c-3.8,0-7.1-1.3-10.1-3.9c-2.7-2.3-4.5-6.6-5.2-12.5h37.3C1101.8,173.4,1103.2,171.9,1103.2,169.5z M1076.9,146.7
		c4.4,0,7.7,1.7,9.9,5.2c2.2,3.3,3.4,7.2,3.7,11.5h-28.4c0.6-6.1,2.2-10.4,4.8-12.8C1069.7,148,1073,146.7,1076.9,146.7z"/>
	<path class="st0" d="M1160.1,138.9c-0.3-0.5-1.1-1.1-2.4-1.1h-5.4c-1.2,0-2.8,0.5-3.7,3.1l-12.7,36.6c-0.8,2.5-1.4,4.3-1.8,5.5
		c-0.4-1.2-1-3.1-1.8-5.6l-12.7-36.6c-0.9-2.5-2.5-3.1-3.7-3.1h-5.4c-1.3,0-2.1,0.6-2.4,1.1c-0.6,0.8-0.6,2-0.1,3.5l18.2,52.1
		c1,2.9,2.4,4.3,4.3,4.3h7.3c1.8,0,3.3-1.4,4.3-4.3l18.2-52.1C1160.7,140.9,1160.7,139.8,1160.1,138.9z"/>
	<path class="st0" d="M1218.7,169.5c0-11.2-2.5-19.5-7.4-24.7c-4.9-5.2-11.2-7.9-18.7-7.9c-8.9,0-15.9,2.9-20.7,8.6
		c-4.8,5.7-7.2,13.3-7.2,22.8c0,9.4,2.3,17.1,6.9,22.7c4.6,5.7,11.9,8.7,21.5,8.7c7.5,0,12.8-1.2,16.4-3.8c4.6-3.3,5.9-4.7,6.4-5.5
		c1.7-2.6,0.4-4.3-0.2-4.8l-3.3-2.8c-1.7-1.5-3.7-1.1-5.4,1.1c-1,1.3-2.5,2.6-4.7,3.9c-2.1,1.3-5.2,1.9-9.2,1.9
		c-3.8,0-7.1-1.3-10.1-3.9c-2.7-2.3-4.5-6.6-5.2-12.5h37.3C1217.3,173.4,1218.7,171.9,1218.7,169.5z M1192.4,146.7
		c4.4,0,7.7,1.7,9.9,5.2c2.1,3.3,3.4,7.2,3.7,11.5h-28.4c0.7-6.1,2.3-10.4,4.8-12.8C1185.2,148,1188.5,146.7,1192.4,146.7z"/>
	<path class="st0" d="M1273.7,143.1c-3.2-4.1-8.5-6.2-15.7-6.2c-4.3,0-8.1,0.7-11,2.1c-2.1,0.9-4,2.3-5.9,3.9v-1.2
		c0-2.4-1.4-3.9-3.9-3.9h-4.6c-2.4,0-3.9,1.4-3.9,3.9v53.2c0,2.4,1.4,3.9,3.8,3.9h4.7c2.4,0,3.8-1.4,3.8-3.9v-30.4
		c0-6.6,1.1-11.2,3.4-13.8c2.2-2.6,5.5-3.8,9.9-3.8c3.4,0,6.2,0.9,8.3,2.6c1.4,1.1,3.1,4.3,3.1,12.7v32.8c0,2.4,1.4,3.9,3.9,3.9h4.8
		c2.4,0,3.8-1.4,3.8-3.9v-35.4C1278.4,152.7,1276.8,147.1,1273.7,143.1z"/>
</g>
</svg>
