<svg xmlns="http://www.w3.org/2000/svg" width="76" height="64" viewBox="0 0 76 64">
    <g fill="#FFF" fill-rule="evenodd">
        <path fill-rule="nonzero" d="M.842 33.684h62.316V35.2H.842z"/>
        <path d="M16.502 59.087l1.06 2.96c-2.147 1.15-4.211 1.48-6.107 1.48C5.29 63.526 2 59.69 2 54.4c0-5.18 3.849-9.4 9.929-9.4 2.036 0 3.709.356 4.908.877v3.453a10.282 10.282 0 0 0-4.825-1.178c-4.016 0-5.94 2.877-5.94 6.193 0 3.563 2.259 6.057 5.857 6.057 1.868 0 3.235-.548 4.573-1.315zm4.914 4.165v-18.06h3.459l4.713 6.55c.614.85 1.06 1.535 1.478 2.247h.056c.363-.685.837-1.452 1.422-2.357l4.267-6.44h3.487v18.06h-3.821v-9.701c0-.713 0-1.535.028-2.165h-.028c-.223.465-.949 1.507-1.255 1.973l-3.291 4.988H30.2l-3.709-5.153c-.39-.52-.836-1.096-1.227-1.781h-.056c.028.63.028 1.452.028 2.028v9.811h-3.82zm22.334 0v-18.06h3.459l4.713 6.55c.614.85 1.06 1.535 1.478 2.247h.056c.363-.685.837-1.452 1.422-2.357l4.267-6.44h3.487v18.06H58.81v-9.701c0-.713 0-1.535.028-2.165h-.028c-.223.465-.949 1.507-1.255 1.973l-3.291 4.988h-1.73l-3.709-5.153c-.39-.52-.836-1.096-1.227-1.781h-.056c.028.63.028 1.452.028 2.028v9.811h-3.82zM.748 29.474h3.605V15.158H.748zM7.74 29.474h3.604V6.737H7.739zM14.73 29.474h3.605V11.789H14.73zM43.3 29.474h4.21V5.053H43.3zM50.896 29.474h4.21V12.632h-4.21zM58.492 29.474h4.21V0h-4.21zM21.72 29.474h3.606V3.368H21.72zM28.712 29.474h3.604V10.947h-3.604zM35.702 29.474h4.211V3.368h-4.21zM69.948 45.697h-1.552v4.28h-.858v-4.28H66V45h3.948v.697zM71.722 45l1.435 3.814L74.59 45h1.118v4.977h-.861v-1.641l.085-2.194-1.47 3.835h-.618l-1.467-3.832.086 2.19v1.642H70.6V45h1.12z"/>
    </g>
</svg>
