<svg xmlns="http://www.w3.org/2000/svg" width="107" height="76" viewBox="0 0 107 76">
    <g fill="#FFF" fill-rule="evenodd">
        <path d="M40.945 72.153c-.325 1.937-1.69 2.925-3.406 2.925-1.014 0-1.846-.364-2.496-1.014-.936-.936-.91-2.093-.91-3.692 0-1.599-.026-2.756.91-3.692.65-.65 1.482-1.014 2.496-1.014 1.729 0 3.08.988 3.406 2.925h-1.833c-.182-.741-.65-1.313-1.56-1.313-.494 0-.897.182-1.157.481-.351.39-.455.832-.455 2.613 0 1.781.104 2.223.455 2.613.26.299.663.481 1.157.481.91 0 1.378-.572 1.56-1.313h1.833zM52.747 75H50.94v-5.395l-1.768 3.51H47.95l-1.781-3.51V75h-1.807v-9.256h1.78l2.419 5.005 2.405-5.005h1.78V75zm10.723-2.665c0 1.729-1.183 2.665-2.834 2.665h-3.874v-9.256h3.718c1.807 0 2.86 1.014 2.86 2.6 0 1.027-.676 1.69-1.144 1.911.559.26 1.274.845 1.274 2.08zm-1.937-3.913c0-.637-.429-1.066-1.196-1.066h-1.768v2.132h1.768c.767 0 1.196-.429 1.196-1.066zm.13 3.822c0-.624-.39-1.131-1.209-1.131h-1.885v2.275h1.885c.819 0 1.209-.52 1.209-1.144zm11.49.026c0 1.794-1.495 2.808-3.432 2.808-1.404 0-2.47-.299-3.38-1.222l1.17-1.17c.585.585 1.378.78 2.236.78 1.066 0 1.638-.403 1.638-1.144 0-.325-.09-.598-.286-.78-.182-.169-.39-.26-.819-.325l-1.118-.156c-.793-.117-1.378-.364-1.794-.767-.442-.442-.663-1.04-.663-1.82 0-1.651 1.222-2.808 3.224-2.808 1.274 0 2.197.312 2.99 1.079l-1.144 1.131c-.585-.559-1.287-.637-1.898-.637-.962 0-1.43.533-1.43 1.17 0 .234.078.481.273.663.182.169.481.312.858.364l1.092.156c.845.117 1.378.351 1.768.715.494.468.715 1.144.715 1.963zM2.093 54.197c1.246 1.024 2.728 1.544 4.447 1.558 2.034-.029 3.065-.756 3.094-2.18.014-1.168-.666-1.87-2.041-2.106-.63-.086-1.322-.183-2.074-.29-1.346-.222-2.37-.72-3.072-1.493-.723-.795-1.085-1.762-1.085-2.9 0-1.369.455-2.472 1.364-3.31.881-.83 2.131-1.253 3.75-1.267 1.947.043 3.641.584 5.08 1.622l-1.32 1.955a7.18 7.18 0 0 0-3.879-1.203c-.73 0-1.339.183-1.826.548-.508.38-.77.945-.784 1.697 0 .451.175.86.526 1.225.351.372.913.63 1.687.773.43.072 1.017.154 1.762.247 1.468.2 2.553.727 3.254 1.58.695.837 1.042 1.811 1.042 2.921-.078 2.994-1.912 4.512-5.5 4.555-2.32 0-4.314-.716-5.983-2.149l1.558-1.783zm12.795-11.86H24.89v2.246h-7.627v4.62h6.51v2.105h-6.51V58h-2.374V42.338zm20.198 7.306H38.6c.88-.015 1.543-.287 1.987-.817.423-.515.634-1.088.634-1.719 0-.522-.086-.963-.258-1.32a1.973 1.973 0 0 0-.752-.764c-.487-.308-1.052-.454-1.697-.44h-3.427v5.06zm-2.374-7.305h5.672c.616 0 1.21.057 1.783.172.573.15 1.153.458 1.74.924.495.35.896.852 1.204 1.504.322.63.483 1.374.483 2.234 0 1.16-.408 2.216-1.225 3.169-.837 1.002-2.062 1.518-3.673 1.547h-3.61V58h-2.374V42.338zm12.87 7.83c0-1.818.054-3.036.162-3.651.114-.616.29-1.114.526-1.494.38-.723.989-1.367 1.826-1.933.824-.573 1.852-.867 3.083-.881 1.247.014 2.285.308 3.116.88.823.567 1.418 1.211 1.783 1.934.265.38.447.878.548 1.494.093.615.14 1.833.14 3.652 0 1.79-.047 3-.14 3.63-.1.631-.283 1.136-.548 1.515-.365.724-.96 1.361-1.783 1.913-.831.572-1.87.873-3.116.902-1.231-.029-2.259-.33-3.083-.902-.837-.552-1.446-1.19-1.826-1.913a17.554 17.554 0 0 1-.311-.676 4.412 4.412 0 0 1-.215-.838c-.108-.63-.161-1.84-.161-3.631zm2.386 0c0 1.54.057 2.583.171 3.127.1.544.305.985.613 1.321.25.322.58.584.988.784.401.237.88.355 1.44.355.565 0 1.056-.118 1.471-.355.394-.2.71-.462.945-.784.308-.336.52-.777.634-1.321.108-.544.161-1.586.161-3.126 0-1.54-.053-2.589-.16-3.148-.115-.53-.327-.963-.635-1.3a2.827 2.827 0 0 0-.945-.805c-.415-.208-.906-.319-1.472-.333-.558.014-1.038.125-1.439.333a2.996 2.996 0 0 0-.988.806c-.308.336-.512.77-.613 1.3-.114.558-.171 1.607-.171 3.147zm14.31-.966h3.587c.888-.014 1.554-.272 1.999-.773.436-.466.655-1.039.655-1.719-.015-.816-.276-1.407-.784-1.773-.401-.322-.982-.483-1.74-.483h-3.717v4.748zm-2.374-6.864h6.112c1.303 0 2.367.344 3.19 1.031.996.78 1.515 1.894 1.558 3.341-.029 2.127-1.039 3.574-3.03 4.34L71.366 58H68.54l-3.233-6.692h-3.03V58h-2.373V42.338zm16.04 2.116h-4.287v-2.116h10.957v2.116h-4.286V58h-2.385V44.454zm14.427 7.939l-2.266-6.843h-.043l-2.267 6.843h4.576zm.677 2.105h-5.94L83.904 58h-2.513l5.693-15.662h1.987L94.765 58h-2.503l-1.214-3.502zm5.76-12.16h2.373v13.417h7.627V58h-10V42.338zM66.621 13.543L59.151.465 56.616 4.89 54.078.465 51.541 4.89 49.004.465l-7.469 13.078 7.47 13.078 2.536-4.425 2.537 4.425 2.537-4.425 2.537 4.425 7.47-13.078zm-2.593 0l-4.876 8.541-4.877-8.54 4.877-8.542 4.876 8.541zm-15.024 8.541l-4.876-8.54 4.876-8.542 1.24 2.17-3.635 6.371 3.635 6.371-1.24 2.17zm5.074 0l-4.877-8.54 4.877-8.542 1.24 2.17-3.636 6.371 3.636 6.371-1.24 2.17z"/>
    </g>
</svg>
