<?xml version="1.0" encoding="UTF-8"?>
<svg width="811px" height="151px" viewBox="0 0 811 151" version="1.1" xmlns="http://www.w3.org/2000/svg" xmlns:xlink="http://www.w3.org/1999/xlink">
    <!-- Generator: Sketch 43.2 (39069) - http://www.bohemiancoding.com/sketch -->
    <title>mark-next-to-text-full-color</title>
    <desc>Created with Sketch.</desc>
    <defs></defs>
    <g id="Page-1" stroke="none" stroke-width="1" fill="none" fill-rule="evenodd">
        <g id="mark-next-to-text-full-color" fill-rule="nonzero">
            <g id="Group" transform="translate(298.000000, 15.000000)" fill="#1085D1">
                <path d="M12.6,42.7 C9,40.8 6.1,38.1 4,34.6 C1.9,31.2 0.9,27.2 0.9,22.9 C0.9,18.5 1.9,14.6 4,11.2 C6.1,7.8 8.9,5.1 12.6,3.1 C16.2,1.2 20.3,0.2 24.9,0.2 C28.9,0.2 32.5,0.9 35.7,2.3 C38.9,3.7 41.6,5.7 43.7,8.4 L35.8,15.5 C33,12.1 29.5,10.4 25.5,10.4 C23.1,10.4 21,10.9 19.2,12 C17.4,13 15.9,14.5 14.9,16.4 C13.9,18.3 13.4,20.5 13.4,22.9 C13.4,25.4 13.9,27.5 14.9,29.4 C15.9,31.3 17.4,32.8 19.2,33.8 C21,34.8 23.2,35.4 25.5,35.4 C29.5,35.4 33,33.7 35.8,30.3 L43.7,37.4 C41.6,40.1 38.9,42.1 35.7,43.5 C32.5,44.9 28.9,45.6 24.9,45.6 C20.3,45.6 16.2,44.6 12.6,42.7 Z" id="Shape"></path>
                <path d="M64,42.7 C60.3,40.7 57.4,38 55.3,34.6 C53.2,31.2 52.2,27.3 52.2,22.9 C52.2,18.6 53.2,14.7 55.3,11.2 C57.4,7.8 60.3,5.1 64,3.1 C67.7,1.1 71.8,0.2 76.4,0.2 C81,0.2 85.2,1.2 88.8,3.1 C92.5,5.1 95.4,7.8 97.5,11.2 C99.6,14.6 100.6,18.5 100.6,22.9 C100.6,27.2 99.6,31.1 97.5,34.6 C95.4,38 92.5,40.7 88.8,42.7 C85.1,44.7 81,45.6 76.4,45.6 C71.8,45.6 67.7,44.6 64,42.7 Z M82.4,33.8 C84.2,32.8 85.6,31.3 86.6,29.4 C87.6,27.5 88.2,25.3 88.2,22.9 C88.2,20.4 87.7,18.3 86.6,16.4 C85.6,14.5 84.1,13 82.4,12 C80.6,11 78.6,10.4 76.4,10.4 C74.2,10.4 72.2,10.9 70.4,12 C68.6,13 67.2,14.5 66.2,16.4 C65.2,18.3 64.6,20.5 64.6,22.9 C64.6,25.4 65.1,27.5 66.2,29.4 C67.2,31.3 68.7,32.8 70.4,33.8 C72.2,34.8 74.2,35.4 76.4,35.4 C78.6,35.4 80.6,34.9 82.4,33.8 Z" id="Shape"></path>
                <polygon id="Shape" points="152.8 44.7 152.7 21.6 141.5 40.4 136 40.4 124.8 22.2 124.8 44.7 113.4 44.7 113.4 1.1 123.6 1.1 138.9 26.3 153.9 1.1 164 1.1 164.1 44.7"></polygon>
                <polygon id="Shape" points="218.4 44.7 218.3 21.6 207.1 40.4 201.6 40.4 190.4 22.2 190.4 44.7 179 44.7 179 1.1 189.2 1.1 204.5 26.3 219.5 1.1 229.7 1.1 229.8 44.7"></polygon>
                <polygon id="Shape" points="279.7 35.2 279.7 44.7 244.7 44.7 244.7 1.1 278.9 1.1 278.9 10.6 256.9 10.6 256.9 18 276.3 18 276.3 27.2 256.9 27.2 256.9 35.2"></polygon>
                <path d="M311.9,33.1 L305.2,33.1 L305.2,44.7 L292.9,44.7 L292.9,1.1 L312.8,1.1 C316.7,1.1 320.2,1.8 323.1,3.1 C326,4.4 328.3,6.3 329.8,8.7 C331.4,11.1 332.2,14 332.2,17.3 C332.2,20.5 331.5,23.2 330,25.6 C328.5,27.9 326.4,29.8 323.7,31.1 L333.1,44.8 L319.9,44.8 L311.9,33.1 Z M317.8,12.5 C316.5,11.4 314.6,10.8 312.1,10.8 L305.2,10.8 L305.2,23.6 L312.1,23.6 C314.6,23.6 316.5,23.1 317.8,21.9 C319.1,20.8 319.7,19.2 319.7,17.2 C319.7,15.2 319,13.6 317.8,12.5 Z" id="Shape"></path>
                <path d="M354.6,42.7 C351,40.8 348.1,38.1 346,34.6 C343.9,31.2 342.9,27.2 342.9,22.9 C342.9,18.5 343.9,14.6 346,11.2 C348.1,7.8 350.9,5.1 354.6,3.1 C358.2,1.2 362.3,0.2 366.9,0.2 C370.9,0.2 374.5,0.9 377.7,2.3 C380.9,3.7 383.6,5.7 385.7,8.4 L377.8,15.5 C375,12.1 371.5,10.4 367.5,10.4 C365.1,10.4 363,10.9 361.2,12 C359.4,13 357.9,14.5 356.9,16.4 C355.9,18.3 355.4,20.5 355.4,22.9 C355.4,25.4 355.9,27.5 356.9,29.4 C357.9,31.3 359.4,32.8 361.2,33.8 C363,34.8 365.2,35.4 367.5,35.4 C371.5,35.4 375,33.7 377.8,30.3 L385.7,37.4 C383.6,40.1 380.9,42.1 377.7,43.5 C374.5,44.9 370.9,45.6 366.9,45.6 C362.3,45.6 358.2,44.6 354.6,42.7 Z" id="Shape"></path>
                <polygon id="Shape" points="397.4 1.1 409.7 1.1 409.7 44.7 397.4 44.7"></polygon>
                <path d="M454,36.2 L435.6,36.2 L432.2,44.7 L419.6,44.7 L438.9,1.1 L451.1,1.1 L470.4,44.7 L457.6,44.7 L454,36.2 Z M450.3,27.1 L444.7,13.1 L439.1,27.1 L450.3,27.1 Z" id="Shape"></path>
                <polygon id="Shape" points="479.9 1.1 492.2 1.1 492.2 34.9 513 34.9 513 44.7 479.9 44.7"></polygon>
                <polygon id="Shape" points="38.8 110 38.8 119.5 3.8 119.5 3.8 75.9 38 75.9 38 85.4 16 85.4 16 92.8 35.4 92.8 35.4 102 16 102 16 110"></polygon>
                <polygon id="Shape" points="80.6 119.5 71.6 106 62.7 119.5 48.6 119.5 64.5 97.4 49.3 75.8 63.2 75.8 71.9 88.4 80.5 75.8 93.8 75.8 78.6 96.9 94.8 119.5"></polygon>
                <path d="M111.5,117.5 C107.9,115.6 105,112.9 102.9,109.4 C100.8,106 99.8,102 99.8,97.7 C99.8,93.3 100.8,89.4 102.9,86 C105,82.6 107.8,79.9 111.5,77.9 C115.1,76 119.2,75 123.8,75 C127.8,75 131.4,75.7 134.6,77.1 C137.8,78.5 140.5,80.5 142.6,83.2 L134.7,90.3 C131.9,86.9 128.4,85.2 124.4,85.2 C122,85.2 119.9,85.7 118.1,86.8 C116.3,87.8 114.8,89.3 113.8,91.2 C112.8,93.1 112.3,95.3 112.3,97.7 C112.3,100.2 112.8,102.3 113.8,104.2 C114.8,106.1 116.3,107.6 118.1,108.6 C119.9,109.6 122.1,110.2 124.4,110.2 C128.4,110.2 131.9,108.5 134.7,105.1 L142.6,112.2 C140.5,114.9 137.8,116.9 134.6,118.3 C131.4,119.7 127.8,120.4 123.8,120.4 C119.3,120.4 115.2,119.4 111.5,117.5 Z" id="Shape"></path>
                <polygon id="Shape" points="195.8 75.9 195.8 119.5 183.5 119.5 183.5 102.5 166.7 102.5 166.7 119.5 154.4 119.5 154.4 75.9 166.7 75.9 166.7 92.3 183.5 92.3 183.5 75.9"></polygon>
                <path d="M240,111 L221.6,111 L218.2,119.5 L205.6,119.5 L224.9,75.9 L237.1,75.9 L256.4,119.5 L243.6,119.5 L240,111 Z M236.4,101.9 L230.8,87.9 L225.2,101.9 L236.4,101.9 Z" id="Shape"></path>
                <polygon id="Shape" points="307.5 75.9 307.5 119.5 297.3 119.5 278 96.3 278 119.5 266 119.5 266 75.9 276.2 75.9 295.5 99.1 295.5 75.9"></polygon>
                <path d="M351.7,96.7 L362.6,96.7 L362.6,114.8 C360.1,116.6 357.2,118 354,118.9 C350.8,119.8 347.5,120.3 344.3,120.3 C339.7,120.3 335.6,119.3 332,117.4 C328.3,115.5 325.5,112.8 323.4,109.3 C321.3,105.9 320.3,101.9 320.3,97.6 C320.3,93.2 321.3,89.3 323.4,85.9 C325.5,82.5 328.4,79.8 332.1,77.8 C335.8,75.9 340,74.9 344.6,74.9 C348.7,74.9 352.3,75.6 355.6,77 C358.8,78.4 361.5,80.3 363.7,82.9 L355.8,90 C352.8,86.8 349.3,85.1 345.2,85.1 C341.5,85.1 338.4,86.2 336.2,88.5 C333.9,90.8 332.8,93.8 332.8,97.6 C332.8,100 333.3,102.2 334.4,104 C335.4,105.9 336.9,107.4 338.8,108.4 C340.7,109.5 342.8,110 345.2,110 C347.6,110 349.8,109.5 351.9,108.6 L351.9,96.7 L351.7,96.7 Z" id="Shape"></path>
                <polygon id="Shape" points="411.7 110 411.7 119.5 376.7 119.5 376.7 75.9 410.9 75.9 410.9 85.4 388.9 85.4 388.9 92.8 408.3 92.8 408.3 102 388.9 102 388.9 110"></polygon>
            </g>
            <g id="Group">
                <polygon id="Shape" fill="#1085D1" points="204.264211 75.5 155.972281 150.467059 101.2 150.467059 149.49193 75.5 101.2 0.532941176 155.883509 0.532941176"></polygon>
                <g id="Shape" fill="#9B9FA0">
                    <polygon points="252.467368 0.532941176 197.78386 0.532941176 181.982456 24.9594118 209.324211 67.3282353"></polygon>
                    <polygon points="209.324211 83.6717647 252.467368 150.467059 197.78386 150.467059 181.982456 126.040588"></polygon>
                    <path d="M91.3463158,150.467059 L121.351228,103.923529 L75.7224561,103.923529 C60.0985965,103.923529 47.3154386,91.1329412 47.3154386,75.5 C47.3154386,59.8670588 60.0985965,47.0764706 75.7224561,47.0764706 L121.351228,47.0764706 L91.3463158,0.532941176 L75.7224561,0.532941176 C34.4435088,0.532941176 0.798947368,34.1082353 0.798947368,75.5 C0.798947368,116.802941 34.3547368,150.467059 75.7224561,150.467059 L91.3463158,150.467059 Z"></path>
                </g>
            </g>
        </g>
    </g>
</svg>