<?xml version="1.0" encoding="UTF-8"?>
<svg width="759px" height="71px" viewBox="0 0 759 71" version="1.1" xmlns="http://www.w3.org/2000/svg" xmlns:xlink="http://www.w3.org/1999/xlink">
    <!-- Generator: Sketch 52.6 (67491) - http://www.bohemiancoding.com/sketch -->
    <title>Verified</title>
    <desc>Created with Sketch.</desc>
    <g id="V6" stroke="none" stroke-width="1" fill="none" fill-rule="evenodd">
        <g id="Default-0" transform="translate(-630.000000, -155.000000)">
            <g id="Group-16" transform="translate(630.000000, 155.000000)">
                <g id="Verified" transform="translate(0.280694, 0.004100)">
                    <path d="M426.039593,48.329762 L426.390385,50.1186489 L426.478082,50.1186489 L426.799641,48.4490211 L435.247867,16.696278 L445.596213,16.696278 L431.798418,60.106601 L421.128514,60.106601 L407.389184,16.696278 L417.708298,16.696278 L426.039593,48.329762 Z M489.55455,41.5319916 L472.862727,41.5319916 L472.862727,52.3547576 L492.536277,52.3547576 L492.536277,60.106601 L462.95287,60.106601 L462.95287,16.696278 L492.594742,16.696278 L492.594742,24.4481214 L472.862727,24.4481214 L472.862727,33.7801483 L489.55455,33.7801483 L489.55455,41.5319916 Z M521.03056,43.4699525 L521.03056,60.106601 L511.120703,60.106601 L511.120703,16.696278 L528.484877,16.696278 C533.473935,16.696278 537.230289,17.7845067 539.754051,19.9609967 C542.277812,22.1374867 543.539674,25.3127292 543.539674,29.4868196 C543.539674,31.9912738 542.891691,34.0087206 541.595705,35.5392204 C540.29972,37.0697202 538.394747,38.3119904 535.880729,39.2660682 L535.909962,39.3555125 C538.54091,40.1108241 540.397163,41.3580634 541.478775,43.0972677 C542.560387,44.836472 543.101185,47.0675893 543.101185,49.7906863 L543.101185,52.5336463 C543.101185,53.6666137 543.261963,54.9088838 543.583523,56.2604941 C543.905084,57.6121043 544.484858,58.5959822 545.322864,59.2121575 L545.322864,60.106601 L535.179146,60.106601 C534.399606,59.4705491 533.878296,58.3674132 533.615201,56.7971601 C533.352106,55.2269071 533.220561,53.7858737 533.220561,52.4740167 L533.220561,49.8503159 C533.220561,47.7036408 532.757716,46.1035968 531.832012,45.0501359 C530.906308,43.996675 529.400843,43.4699525 527.315573,43.4699525 L521.03056,43.4699525 Z M521.03056,35.7181091 L527.549433,35.7181091 C529.576238,35.7181091 531.106063,35.2659228 532.138954,34.3615365 C533.171845,33.4571503 533.688283,32.1204676 533.688283,30.3514483 C533.688283,28.5227992 533.205949,27.0817658 532.241268,26.0283049 C531.276587,24.974844 529.800355,24.4481214 527.812527,24.4481214 L521.03056,24.4481214 L521.03056,35.7181091 Z M574.606428,60.106601 L564.755036,60.106601 L564.755036,16.696278 L574.606428,16.696278 L574.606428,60.106601 Z M622.686564,42.6351386 L605.965507,42.6351386 L605.965507,60.106601 L596.055651,60.106601 L596.055651,16.696278 L625.66829,16.696278 L625.66829,24.4481214 L605.965507,24.4481214 L605.965507,34.8832952 L622.686564,34.8832952 L622.686564,42.6351386 Z M654.747226,60.106601 L644.895834,60.106601 L644.895834,16.696278 L654.747226,16.696278 L654.747226,60.106601 Z M702.798129,41.5319916 L686.106306,41.5319916 L686.106306,52.3547576 L705.779856,52.3547576 L705.779856,60.106601 L676.196449,60.106601 L676.196449,16.696278 L705.838321,16.696278 L705.838321,24.4481214 L686.106306,24.4481214 L686.106306,33.7801483 L702.798129,33.7801483 L702.798129,41.5319916 Z M724.364282,60.106601 L724.364282,16.696278 L738.425171,16.696278 C744.44712,16.696278 749.21686,18.420549 752.734536,21.8691428 C756.252212,25.3177365 758.011023,29.9240743 758.011023,35.6882943 L758.011023,41.1145847 C758.011023,46.8986814 756.257084,51.5099882 752.749152,54.9486436 C749.241221,58.387299 744.486096,60.106601 738.483636,60.106601 L724.364282,60.106601 Z M734.274139,24.4481214 L734.274139,52.3547576 L737.840518,52.3547576 C741.445892,52.3547576 744.062185,51.3758487 745.689476,49.4180015 C747.316766,47.4601544 748.130399,44.6923764 748.130399,41.1145847 L748.130399,35.6286648 C748.130399,32.0707496 747.316766,29.3178789 745.689476,27.3699701 C744.062185,25.4220612 741.41666,24.4481214 737.75282,24.4481214 L734.274139,24.4481214 Z" fill="#747474"></path>
                    <path d="M174.344119,67.0071411 C162.286365,68.0257661 156.393661,56.9806169 155.477564,46.3404496 C154.214835,31.7853823 161.989248,26.0296284 169.491288,25.3914797 C180.954834,24.4219663 187.243685,35.1111949 188.184527,46.1440788 C189.410114,60.294139 182.254681,66.319906 174.344119,67.0071411 Z M172.02912,22.2742782 C156.88884,22.2742782 146.229988,32.8408033 146.229988,46.6104375 C146.229988,59.6682557 155.836569,70.1243427 172.02912,70.1243427 C186.748481,70.1243427 197.419731,59.9750647 197.419731,45.9968195 C197.419731,33.3317178 188.853022,22.2742782 172.02912,22.2742782 Z M297.669926,23.4278971 C294.711202,23.6241925 292.520003,23.7101503 290.205003,23.7101503 C287.828115,23.7101503 285.426483,23.6241925 282.306814,23.4278971 C281.242172,23.8206136 281.143141,25.4896526 282.071534,25.9928073 L284.275055,26.3119067 C286.800463,26.6309811 286.577657,27.5391427 285.005438,30.4477082 L280.833499,38.0320257 C279.075616,41.3210423 277.491024,43.8000449 275.807402,46.6104375 C274.247555,43.9105082 272.675336,41.1124061 271.127887,38.0320257 L267.253066,30.6686096 C265.557045,27.4286794 265.903703,26.8396172 268.18156,26.3119067 L269.654724,25.9928073 C270.694596,25.4896526 270.397479,23.8206136 269.543168,23.4278971 C266.200694,23.6241925 263.811408,23.7101503 260.66697,23.7101503 C256.903577,23.7101503 254.489547,23.6241925 251.048021,23.4278971 C250.23093,23.7101503 250.020496,25.3791893 250.726134,25.9928073 L253.449654,26.5082524 C256.160797,27.0359629 257.225439,27.9686804 259.40424,32.1044818 L267.030082,46.0949923 C269.654597,50.8566771 269.951689,51.6789312 269.951689,54.906571 L269.951689,58.8214709 C269.951689,64.9453856 269.543168,65.5712689 265.049342,66.0744488 L262.449648,66.3935231 C261.694495,66.9089682 261.805924,68.6762052 262.647659,68.9830142 C267.351944,68.7867187 270.607761,68.67618 273.95026,68.67618 C277.168959,68.67618 280.622888,68.7865177 285.203347,68.9830142 C286.05753,68.67618 286.168959,66.9089682 285.426204,66.3935231 L282.814112,66.0744488 C278.332684,65.5712689 277.887046,64.9453856 277.887046,58.8214709 L277.887046,53.2252416 C277.887046,50.2307938 278.109903,49.1999034 281.885643,43.3091555 L288.347811,32.9267108 C291.591255,27.7723095 292.111229,27.1341609 295.367045,26.5082524 L297.867734,25.9928073 C298.70957,25.4896526 298.486713,23.7101503 297.669723,23.4278971 L297.669926,23.4278971 Z M224.815827,66.1848869 C216.83098,66.1848869 215.815853,62.8590743 215.815853,56.2688009 L215.815853,31.5890366 C215.815853,29.2940892 215.815853,27.9809457 216.410087,27.5514081 C217.264271,26.8396172 219.257409,26.4223449 222.711312,26.4223449 C234.496694,26.4223449 243.484321,33.0494394 243.484321,45.7881833 C243.484321,58.4041986 237.331643,66.1848869 224.815827,66.1848869 Z M238.37154,25.6982887 C233.469194,24.0292498 228.331668,23.4156066 222.48848,23.4156066 C214.045547,23.4156066 208.177613,23.6242177 202.322078,24.0292498 C201.393608,24.3360588 201.269782,26.3119067 202.210522,26.6187157 L205.342563,27.0359629 C207.756594,27.342797 207.855624,29.0977435 207.855624,35.8352762 L207.855624,57.8151364 C207.855624,64.9453856 207.434731,65.3503675 202.94093,66.0744488 L200.947793,66.3812829 C200.229783,66.9089934 200.341211,68.6884705 201.158227,68.9707489 C205.243482,68.786769 208.499323,68.6884956 211.841823,68.6884956 C213.414068,68.6884956 215.394808,68.786769 217.449782,68.8847911 C219.665751,69.1057177 222.09218,69.2038654 224.382384,69.2038654 C229.594195,69.2038654 235.437384,68.3939017 240.154041,65.9762256 C248.522664,61.7422514 252.793633,54.1701992 252.793633,45.9967692 C252.793633,36.4611344 247.878939,28.9013476 238.371388,25.6982385 L238.37154,25.6982887 Z M333.781277,43.7999947 L327.319109,40.4864474 C323.134823,38.3142286 320.361787,36.0315717 320.361787,32.3375732 C320.361787,28.8154149 322.627247,25.2686757 328.792272,25.2686757 C334.957348,25.2686757 337.668496,30.5580961 338.535052,34.1784523 C339.030231,34.8902432 340.899567,34.7920703 341.258572,33.9821569 C341.320435,29.5272812 340.590077,25.5755601 339.760639,23.8206136 C336.220052,23.219261 333.707016,22.2742782 330.030256,22.2742782 C319.507578,22.2742782 313.614874,27.5391427 313.614874,35.1111949 C313.614874,40.9160604 317.922987,44.9536639 322.936736,47.5308645 L327.628624,49.9239848 C333.607986,52.930723 334.957348,56.3547084 334.957348,59.6682557 C334.957348,64.4176751 331.515818,67.1298697 326.180206,67.1298697 C319.185691,67.1298697 314.592885,59.778719 313.751048,56.0356341 C313.008293,55.0906513 311.448446,55.2011146 311.027553,56.2565607 C311.027553,61.7423268 312.277885,65.4731212 313.231124,66.9089934 C314.691915,67.9398837 318.888573,70.1243678 325.239338,70.1243678 C335.588726,70.1243678 342.2737,65.0435836 342.2737,56.980642 C342.2737,50.0344481 337.557067,45.6777452 333.781277,43.8000701 L333.781277,43.7999947 Z M315.991762,10.198289 C315.991762,4.82296109 312.253114,0.257647175 307.945002,0.257647175 C303.89689,0.257647175 302.931278,2.95757644 302.931278,4.52844254 C302.931278,6.4674694 304.317783,7.3142542 305.753803,7.4247175 C307.746941,7.53505514 310.965614,9.27783683 310.965614,13.2295579 C310.965614,17.4635321 306.917502,20.3720976 303.042656,22.1147787 C302.522732,22.8388349 302.9311,23.8942558 303.773064,24.2992628 C310.34666,22.3479455 315.991762,17.353094 315.991762,10.198289 Z M118.227285,67.0071662 C106.16953,68.0257912 100.276826,56.980642 99.3607296,46.3404747 C98.0980001,31.7854075 105.872413,26.0296535 113.374479,25.3915049 C124.837999,24.4219914 131.126851,35.11122 132.080065,46.1441039 C133.293279,60.2941642 126.125473,66.3199311 118.227285,67.0071662 Z M115.912285,22.2743033 C100.759633,22.2743033 90.1131534,32.8408284 90.1131534,46.6104626 C90.1131534,59.6682808 99.7197347,70.1243678 115.912285,70.1243678 C130.631672,70.1243678 141.302896,59.9750898 141.302896,45.9968446 C141.302896,33.3317429 132.736188,22.2743033 115.912285,22.2743033 Z M85.3346077,66.0744739 C80.4446589,65.5712941 80.531317,62.8713899 80.2218273,57.7169635 C79.380016,42.7692049 79.2686129,23.6242679 79.0705263,12.6404956 C78.9592245,5.39978312 79.8009343,3.53437334 86.3745056,2.78576139 L88.5904494,2.58946596 C89.1103983,2.15992833 89.1103983,0.404981849 88.4913173,9.48742375e-15 C85.2231031,0.208611019 81.7939451,0.294543678 79.1818533,0.294543678 C77.0896851,0.294543678 74.8984863,0.294543678 71.3331548,9.48742375e-15 C71.122721,4.76168474 68.2135119,10.4683523 63.3978234,19.8812584 L53.5684104,39.6520787 C50.9686911,44.9537644 48.3442015,50.3536229 45.5340231,55.2012152 L45.3235893,55.2012152 C42.7981556,50.6358761 40.5079261,45.8741914 38.1062681,41.0265991 L26.1970848,17.0831563 C22.9660134,10.4683523 20.3415238,4.03760344 20.7624167,0 C17.3085137,0.294543678 14.4983353,0.294543678 12.0843048,0.294543678 C9.4845855,0.294543678 6.97152436,0.208585885 3.83948363,0 C2.99767242,0.404981849 2.88624393,1.96358263 3.41856535,2.58946596 L5.07744279,2.78576139 C11.4529527,3.82891702 12.3195343,5.16659119 12.0843048,11.6955129 C11.873871,17.3898899 11.4529527,26.1892032 10.9330038,34.7921457 C10.3140242,45.0641272 9.80647313,50.746264 9.17509571,57.59426 C8.54374364,64.8349726 7.070555,65.5712941 2.68818263,66.0744739 L0.385580554,66.381308 C-0.258169363,66.9090185 -0.0353377288,68.4798846 0.608437541,68.970774 C4.16139662,68.7867941 7.91241692,68.6885208 11.2425443,68.6885208 C15.2163962,68.6885208 19.3016767,68.7867941 22.8546357,68.970774 C23.5850184,68.6885208 23.6964469,67.0194567 22.9659374,66.381308 L18.9920601,66.0744739 C14.9067797,65.7799302 14.3001979,64.1231566 14.3001979,56.4529064 C14.3001979,47.6536183 14.7087184,38.412502 15.0182082,32.1045069 C15.3400704,26.0910304 15.6619581,20.0775539 16.058106,13.6590955 L16.2685398,13.6590955 C18.5711418,18.4330456 20.7623407,23.8206388 22.965912,28.5823235 L32.3496617,48.5740453 C34.7636922,53.6548043 39.7650695,63.8163476 41.5724929,69.2898483 C41.7705035,69.6089226 42.3028756,69.7070955 42.5009623,69.7070955 C42.9218552,69.7070955 43.330401,69.6088221 43.5284623,69.2898483 C45.4225439,64.5281636 50.1391764,54.8084233 54.8186914,45.6777703 L64.1281554,27.5391679 C66.2203236,23.5260951 70.1694052,15.2299616 70.9121858,14.0886331 L71.1226196,14.0886331 L71.4445072,57.2751606 C71.4445072,63.9145204 71.4445072,65.5712941 66.3193289,66.0744739 L63.3110892,66.381308 C62.6673392,67.0194567 62.7787677,68.4798846 63.521523,68.970774 C67.7801197,68.7867941 72.4967522,68.6885208 76.136344,68.6885208 C79.8997621,68.6885208 84.1955017,68.7867941 88.4912159,68.970774 C89.2092262,68.5657921 89.3082822,67.0194567 88.7016497,66.381308 L85.3346077,66.0744739 Z" id="Moody's-Logo" fill="#2196F3" fill-rule="nonzero"></path>
                </g>
            </g>
        </g>
    </g>
</svg>