<svg xmlns="http://www.w3.org/2000/svg" viewBox="0 0 129.309 59.158">
  <defs>
    <style>
      .cls-1 {
        fill: none;
        stroke: #000;
        stroke-width: 0.75px;
      }
    </style>
  </defs>
  <g id="Group_1573" data-name="Group 1573" transform="translate(-0.025 0.158)">
    <g id="Group_1550" data-name="Group 1550" transform="translate(32.661 0)">
      <path id="Path_1684" data-name="Path 1684" d="M61.353,0a1.667,1.667,0,0,1,.7.162A1.3,1.3,0,0,1,62.6.7a1.5,1.5,0,0,1,.162.7,1.667,1.667,0,0,1-.162.7,1.3,1.3,0,0,1-.541.541,1.606,1.606,0,0,1-1.407,0,1.3,1.3,0,0,1-.541-.541,3.167,3.167,0,0,1-.108-.7,1.667,1.667,0,0,1,.162-.7A1.72,1.72,0,0,1,60.7.162,1.441,1.441,0,0,1,61.353,0Zm0,.271a1.234,1.234,0,0,0-.6.162,1.647,1.647,0,0,0-.433.433,1.091,1.091,0,0,0-.162.6,1.234,1.234,0,0,0,.162.6,1.647,1.647,0,0,0,.433.433,1.091,1.091,0,0,0,.6.162,1.234,1.234,0,0,0,.6-.162,1.647,1.647,0,0,0,.433-.433,1.091,1.091,0,0,0,.162-.6,1.234,1.234,0,0,0-.162-.6,1.647,1.647,0,0,0-.433-.433A.838.838,0,0,0,61.353.271Zm-.6,1.894V.7H61.3c.162,0,.325,0,.379.054s.162.054.162.162a.325.325,0,0,1,.054.217.413.413,0,0,1-.108.271c-.054.108-.162.108-.325.162a.189.189,0,0,1,.108.054c.054.054.108.162.217.271L62,2.165h-.271l-.108-.217c-.108-.162-.162-.325-.271-.325-.054-.054-.108-.054-.217-.054h-.162v.6Zm.271-.812H61.3c.162,0,.217,0,.271-.054a.281.281,0,0,0,.108-.217c0-.054,0-.108-.054-.108,0-.054-.054-.054-.108-.054h-.487v.433Z" transform="translate(-60 0)"/>
    </g>
    <g id="Group_1551" data-name="Group 1551" transform="translate(126.519 14.723)">
      <path id="Path_1685" data-name="Path 1685" d="M234.807,27.2a1.667,1.667,0,0,1,.7.162,1.3,1.3,0,0,1,.541.541,1.5,1.5,0,0,1,.162.7,1.666,1.666,0,0,1-.162.7,1.3,1.3,0,0,1-.541.541,1.5,1.5,0,0,1-.7.162,1.667,1.667,0,0,1-.7-.162,1.3,1.3,0,0,1-.541-.541,1.5,1.5,0,0,1-.162-.7,1.667,1.667,0,0,1,.162-.7,1.72,1.72,0,0,1,.541-.541A1.869,1.869,0,0,1,234.807,27.2Zm0,.217a1.234,1.234,0,0,0-.6.162,1.648,1.648,0,0,0-.433.433,1.091,1.091,0,0,0-.162.6,1.234,1.234,0,0,0,.162.6,1.647,1.647,0,0,0,.433.433,1.091,1.091,0,0,0,.6.162,1.234,1.234,0,0,0,.6-.162,1.648,1.648,0,0,0,.433-.433,1.091,1.091,0,0,0,.162-.6,1.234,1.234,0,0,0-.162-.6,1.648,1.648,0,0,0-.433-.433A1.091,1.091,0,0,0,234.807,27.417Zm-.6,1.949V27.85h.541c.162,0,.325,0,.379.054s.162.054.162.162a.326.326,0,0,1,.054.217.413.413,0,0,1-.108.271.881.881,0,0,1-.325.162.189.189,0,0,1,.108.054c.054.054.108.162.217.271l.162.271h-.271l-.108-.217c-.108-.162-.162-.325-.271-.325-.054-.054-.108-.054-.217-.054h-.162v.65Zm.271-.812h.271c.162,0,.217,0,.271-.054a.2.2,0,0,0,.054-.162c0-.054,0-.108-.054-.108,0-.054-.054-.054-.108-.054h-.487v.379Z" transform="translate(-233.4 -27.2)"/>
    </g>
    <g id="Group_1552" data-name="Group 1552" transform="translate(38.939 15.21)">
      <path id="Path_1686" data-name="Path 1686" d="M79.286,42.5c6.874,0,9.743-1.353,9.743-6.5,0-4.168-3.3-6.225-6.766-6.225-2.544,0-2.977.541-2.977,2.328ZM71.6,56.414c3.248,0,3.789-.65,3.789-4.06,0-6.658.162-12.341.162-18.674,0-3.41-.541-4.06-3.3-4.06V28.7h8.769c7.253,0,12.179,2.219,12.179,7.416,0,5.088-5.359,6.5-6.658,6.82l7.47,10.988c1.191,1.786,2.328,2.49,3.9,2.49v.92H92.872c-.433,0-.866-.108-1.84-1.678L83.238,43.585H79.286v8.769c0,3.41.541,4.06,3.951,4.06v.92H71.6Z" transform="translate(-71.6 -28.375)"/>
      <path id="Path_1687" data-name="Path 1687" d="M79.286,42.5c6.874,0,9.743-1.353,9.743-6.5,0-4.168-3.3-6.225-6.766-6.225-2.544,0-2.977.541-2.977,2.328ZM71.6,56.414c3.248,0,3.789-.65,3.789-4.06,0-6.658.162-12.341.162-18.674,0-3.41-.541-4.06-3.3-4.06V28.7h8.769c7.253,0,12.179,2.219,12.179,7.416,0,5.088-5.359,6.5-6.658,6.82l7.47,10.988c1.191,1.786,2.328,2.49,3.9,2.49v.92H92.872c-.433,0-.866-.108-1.84-1.678L83.238,43.585H79.286v8.769c0,3.41.541,4.06,3.951,4.06v.92H71.6Z" transform="translate(-71.6 -28.375)"/>
      <path id="Path_1688" data-name="Path 1688" d="M119.8,56.414c3.681,0,4.222-.65,4.222-4.06.108-5.846.162-12.179.162-18.674,0-3.41-.541-4.06-3.951-4.06V28.7h21.76l.974,5.142h-.7c-2.057-2.6-3.356-4.06-7.578-4.06h-3.9c-2.273,0-2.652.217-2.652,1.786V41.42h4.655c3.9,0,4.222-.6,4.926-3.951h.974V47.32h-.974c-.487-3.518-1.245-4.384-4.493-4.384H128.19V54.3c0,1.516.7,1.894,2.869,1.894h5.954c4.276,0,5.142-.812,8.011-5.629h.866c-.433,1.191-1.191,5.034-1.516,6.712h-24.52v-.866Z" transform="translate(-93.71 -28.375)"/>
      <path id="Path_1689" data-name="Path 1689" d="M119.8,56.414c3.681,0,4.222-.65,4.222-4.06.108-5.846.162-12.179.162-18.674,0-3.41-.541-4.06-3.951-4.06V28.7h21.76l.974,5.142h-.7c-2.057-2.6-3.356-4.06-7.578-4.06h-3.9c-2.273,0-2.652.217-2.652,1.786V41.42h4.655c3.9,0,4.222-.6,4.926-3.951h.974V47.32h-.974c-.487-3.518-1.245-4.384-4.493-4.384H128.19V54.3c0,1.516.7,1.894,2.869,1.894h5.954c4.276,0,5.142-.812,8.011-5.629h.866c-.433,1.191-1.191,5.034-1.516,6.712h-24.52v-.866Z" transform="translate(-93.71 -28.375)"/>
      <path id="Path_1690" data-name="Path 1690" d="M178.916,52.254c0,3.41.541,4.06,3.41,4.06v.92H171.5v-.92c2.977,0,3.518-.65,3.518-4.06V33.58c0-3.41-.541-4.06-3.518-4.06V28.6h11.475v.92c-3.518,0-4.06.65-4.06,4.06Z" transform="translate(-117.426 -28.329)"/>
      <path id="Path_1691" data-name="Path 1691" d="M178.916,52.254c0,3.41.541,4.06,3.41,4.06v.92H171.5v-.92c2.977,0,3.518-.65,3.518-4.06V33.58c0-3.41-.541-4.06-3.518-4.06V28.6h11.475v.92c-3.518,0-4.06.65-4.06,4.06Z" transform="translate(-117.426 -28.329)"/>
      <path id="Path_1692" data-name="Path 1692" d="M212.68,35.407h-.7c-1.353-4.114-3.681-6.441-6.712-6.441-2.219,0-5.359,1.57-5.359,4.872,0,7.524,14.831,6.117,14.831,15.1,0,3.681-3.3,8.5-10.176,8.5-2,0-6.55-.541-7.47-1.407-.92-.812-1.028-5.792-1.191-7.253h.7c.65,1.84,2.869,7.74,8.336,7.74,3.085,0,6.5-1.786,6.5-5.792,0-8.119-14.831-5.683-14.831-15.156,0-3.681,2.706-7.47,9.418-7.47a14.5,14.5,0,0,1,6.712,1.353v5.954Z" transform="translate(-128.618 -28.1)"/>
      <path id="Path_1693" data-name="Path 1693" d="M212.68,35.407h-.7c-1.353-4.114-3.681-6.441-6.712-6.441-2.219,0-5.359,1.57-5.359,4.872,0,7.524,14.831,6.117,14.831,15.1,0,3.681-3.3,8.5-10.176,8.5-2,0-6.55-.541-7.47-1.407-.92-.812-1.028-5.792-1.191-7.253h.7c.65,1.84,2.869,7.74,8.336,7.74,3.085,0,6.5-1.786,6.5-5.792,0-8.119-14.831-5.683-14.831-15.156,0-3.681,2.706-7.47,9.418-7.47a14.5,14.5,0,0,1,6.712,1.353v5.954Z" transform="translate(-128.618 -28.1)"/>
    </g>
    <rect id="Rectangle_851" data-name="Rectangle 851" class="cls-1" width="7.74" height="7.74" transform="translate(20.806 0.217)"/>
    <rect id="Rectangle_852" data-name="Rectangle 852" class="cls-1" width="7.74" height="7.74" transform="translate(20.806 10.393)"/>
    <rect id="Rectangle_853" data-name="Rectangle 853" class="cls-1" width="7.74" height="7.74" transform="translate(20.806 20.623)"/>
    <rect id="Rectangle_854" data-name="Rectangle 854" width="7.74" height="7.74" transform="translate(20.806 30.853)"/>
    <rect id="Rectangle_855" data-name="Rectangle 855" class="cls-1" width="7.74" height="7.74" transform="translate(10.576 10.393)"/>
    <rect id="Rectangle_856" data-name="Rectangle 856" class="cls-1" width="7.74" height="7.74" transform="translate(10.576 20.623)"/>
    <rect id="Rectangle_857" data-name="Rectangle 857" width="7.74" height="7.74" transform="translate(10.576 30.853)"/>
    <rect id="Rectangle_858" data-name="Rectangle 858" width="7.74" height="7.74" transform="translate(10.576 41.029)"/>
    <rect id="Rectangle_859" data-name="Rectangle 859" class="cls-1" width="7.74" height="7.74" transform="translate(0.4 20.623)"/>
    <rect id="Rectangle_860" data-name="Rectangle 860" width="7.74" height="7.74" transform="translate(0.4 30.853)"/>
    <rect id="Rectangle_861" data-name="Rectangle 861" width="7.74" height="7.74" transform="translate(0.4 41.029)"/>
    <rect id="Rectangle_862" data-name="Rectangle 862" width="7.74" height="7.74" transform="translate(0.4 51.26)"/>
  </g>
</svg>
