<svg xmlns="http://www.w3.org/2000/svg" width="76" height="96" viewBox="0 0 76 96">
    <path fill="#0090FF" fill-rule="evenodd" d="M72.102 17.495c-11-.899-21.3-5.602-29.102-13.398l-2-2.102c-.8-.8-1.898-1.199-3-1.199-1.101 0-2.199.398-3 1.2l-2 2.1c-7.8 7.802-18.102 12.5-29.102 13.399C1.7 17.694 0 19.495 0 21.694v12.102c0 25.398 13.801 49 35.898 61.5.602.398 1.398.5 2.102.5.699 0 1.398-.2 2.101-.5C62.2 82.796 76 59.194 76 33.796V21.694c0-2.2-1.699-4-3.898-4.2h.001zm-15.8 22.699l-18.7 20.3c-.8.802-1.898 1.302-3 1.4h-.101c-1.102 0-2.2-.4-3-1.2L21 49.995c-1.602-1.602-1.602-4.3 0-5.898 1.601-1.602 4.3-1.602 5.898 0l7.5 7.5 15.7-17.102c1.6-1.7 4.198-1.801 5.898-.301 1.703 1.601 1.804 4.3.304 6z"/>
</svg>
