<svg xmlns="http://www.w3.org/2000/svg" width="74" height="76" viewBox="0 0 74 76">
    <g fill="#0090FF" fill-rule="evenodd">
        <path d="M57.195 13.202a21.381 21.381 0 0 0-4.602-6.824 21.384 21.384 0 0 0-6.824-4.602A21.32 21.32 0 0 0 37.414.09c-2.899 0-5.711.566-8.36 1.687a21.424 21.424 0 0 0-6.824 4.602 21.34 21.34 0 0 0-4.602 6.824 21.32 21.32 0 0 0-1.687 8.356c0 4.867 3.441 12.71 10.234 23.309 4.98 7.773 10.027 14.277 10.078 14.344l1.16 1.488 1.156-1.488c.051-.063 5.102-6.567 10.078-14.344 6.79-10.602 10.234-18.441 10.234-23.31a21.237 21.237 0 0 0-1.687-8.355h.001zm-19.781 15.72a8.322 8.322 0 0 1-8.32-8.321 8.32 8.32 0 0 1 8.32-8.32 8.32 8.32 0 0 1 8.32 8.32c.004 4.594-3.722 8.32-8.32 8.32z"/>
        <path d="M70.27 54.058c-1.898-1.746-4.578-3.297-7.969-4.613-3.058-1.188-6.562-2.137-10.363-2.817-.465.746-.941 1.504-1.433 2.274l-.25.39c4.062.657 7.793 1.625 10.992 2.868 5.933 2.308 9.335 5.32 9.335 8.273 0 2.953-3.402 5.969-9.335 8.273C54.794 71.214 46.18 72.597 37 72.597c-9.184 0-17.793-1.383-24.246-3.89-5.934-2.305-9.336-5.32-9.336-8.274 0-2.953 3.402-5.969 9.336-8.273 3.394-1.32 7.39-2.328 11.75-2.985-.059-.09-.114-.18-.176-.27-.52-.816-1.027-1.617-1.516-2.402-4.09.688-7.86 1.684-11.113 2.946-3.386 1.316-6.066 2.87-7.969 4.613C1.591 56.027.51 58.172.51 60.433c0 2.262 1.086 4.406 3.222 6.371 1.899 1.746 4.579 3.297 7.97 4.613 6.78 2.637 15.77 4.086 25.3 4.086 9.535 0 18.52-1.453 25.301-4.086 3.387-1.316 6.067-2.87 7.969-4.613 2.14-1.965 3.227-4.11 3.227-6.37-.004-2.267-1.09-4.411-3.227-6.376h-.001z"/>
        <path d="M53.246 60.081c0-2.57-3.133-4.273-7.328-5.203-.633.914-1.242 1.785-1.824 2.606a23.35 23.35 0 0 1 3.043.734c2.644.848 3.199 1.726 3.199 1.863s-.559 1.02-3.2 1.863c-1.972.633-4.46 1.047-7.179 1.204-.004.007-.008.011-.012.015a42.778 42.778 0 0 1-5.207-.008c-.004-.004-.008-.007-.011-.015-2.66-.164-5.098-.574-7.036-1.196-2.644-.843-3.199-1.726-3.199-1.863s.559-1.02 3.2-1.863c.878-.281 1.863-.52 2.921-.711a218.58 218.58 0 0 1-1.82-2.602c-4.137.934-7.21 2.633-7.21 5.176v.016c0 4.156 8.202 6.054 15.827 6.054 7.621 0 15.828-1.894 15.828-6.054.008-.008.008-.012.008-.016z"/>
    </g>
</svg>
