<svg xmlns="http://www.w3.org/2000/svg" width="65" height="92" viewBox="0 0 65 92">
    <path fill="#0090FF" fill-rule="evenodd" d="M32.703 0C24.578.016 16.387 1.503 8.188 4.38c-.074.024-.155.036-.229.065-.065.016-.13.04-.196.065-.013.004-.025-.004-.033 0-1.649.588-3.326 1.3-4.779 2.451-1.518 1.205-2.75 3.13-2.75 5.425v56.638c0 4.502 3.904 8.073 8.478 8.073h3.24L.694 88.437C-.878 90.008.443 92 2.46 92h60.126c2.434.016 3.118-2.329 1.636-3.759-3.845-3.75-7.659-7.435-11.488-11.144h3.6c4.574 0 8.477-3.57 8.477-8.072V12.387c0-2.304-1.264-4.2-2.782-5.392-1.513-1.193-3.265-1.92-4.942-2.55-8.035-3.01-16.181-4.46-24.384-4.444V0zM4 22h26v21H4V22zm31 0h26v21H35V22zM15.5 54c3.563 0 6.5 2.937 6.5 6.5S19.063 67 15.5 67 9 64.063 9 60.5s2.937-6.5 6.5-6.5zm34 0c3.563 0 6.5 2.937 6.5 6.5S53.063 67 49.5 67 43 64.063 43 60.5s2.937-6.5 6.5-6.5zM17.979 77h28.91L50 80H15l2.979-3zm-7.448 7h43.805L58 88H7l3.531-4z"/>
</svg>
